<?xml version="1.0" encoding="UTF-8" standalone="no"?>
<!-- Created with Inkscape (http://www.inkscape.org/) -->

<svg
   width="1082.2007mm"
   height="483.00104mm"
   viewBox="0 0 1082.2007 483.00104"
   version="1.1"
   id="svg1"
   xml:space="preserve"
   xmlns="http://www.w3.org/2000/svg"
   xmlns:svg="http://www.w3.org/2000/svg"><defs
     id="defs1" /><g
     id="layer1"
     transform="translate(15.418208,-5.8854593)"><path
       style="fill:#000000;stroke-width:1.01839"
       d="m 229.82227,488.33022 c -4.74415,-0.42714 -11.74231,-0.50841 -15.55148,-0.18059 -3.80918,0.3278 -8.83238,0.10794 -11.16268,-0.48863 -2.33031,-0.59655 -11.31507,-2.28849 -19.96615,-3.75985 -19.85063,-3.37616 -29.77971,-6.16711 -50.73947,-14.26235 -16.89386,-6.52488 -31.33568,-13.47915 -34.935412,-16.82272 -1.075126,-0.99861 -2.830445,-2.09358 -3.900703,-2.43328 -2.921234,-0.92715 -10.200845,-6.04545 -16.204284,-11.39322 -2.936754,-2.61602 -8.307811,-7.26653 -11.935683,-10.33448 -3.627872,-3.06795 -8.636132,-7.86282 -11.129469,-10.65528 -2.493337,-2.79248 -6.717397,-7.24778 -9.386801,-9.9007 -2.669404,-2.65293 -4.853593,-5.16452 -4.853753,-5.58134 -1.6e-4,-0.41682 -2.96842,-3.93732 -6.59613,-7.82335 -3.627712,-3.88602 -6.595839,-7.54938 -6.595839,-8.1408 0,-0.59141 -1.281641,-2.66347 -2.848092,-4.60458 -2.634727,-3.26487 -4.609646,-6.45022 -10.221613,-16.48637 -3.7996797,-6.79517 -12.3000268,-27.38495 -12.3000268,-29.7935 0,-2.18301 -1.26217742,-5.70236 -4.6848314,-13.06281 -5.437575,-11.69358 -13.4718158,-61.90393 -12.0655968,-75.40452 0.250305,-2.40308 0.68669,-9.59465 0.969742,-15.98126 0.760501,-17.15944 5.1219554,-40.15683 11.0824192,-58.4362 0.7937644,-2.43431 1.7364603,-6.12155 2.0948789,-8.19387 0.35841866,-2.07233 1.81122962,-6.41054 3.2284682,-9.6405 1.4172397,-3.22994 3.9814645,-9.06921 5.6982782,-12.97615 C 13.967179,127.98033 28.523363,104.85036 39.362221,91.849759 49.409267,79.798891 65.325829,64.105295 75.493962,56.224171 c 4.680635,-3.627872 9.010955,-7.059254 9.622936,-7.625293 1.037598,-0.959713 6.712917,-4.348057 22.975072,-13.716842 3.65228,-2.104124 9.58881,-5.05259 13.19225,-6.552148 3.60345,-1.499557 8.37835,-3.561041 10.61089,-4.581076 9.96925,-4.554897 28.13197,-10.854323 36.02501,-12.494652 1.39534,-0.289978 6.8752,-1.5293231 12.17747,-2.7541 8.767,-2.0250964 12.85866,-2.2548958 45.15812,-2.5362107 46.41903,-0.4042903 54.85997,0.5086972 80.16836,8.6711627 25.55882,8.243234 41.54143,14.475337 48.99269,19.103734 5.97988,3.714438 22.36966,15.176349 26.24182,18.351772 1.75146,1.436307 6.66051,5.053599 10.90899,8.038424 4.24847,2.984825 7.72451,5.762337 7.72451,6.17225 0,0.409912 3.31075,4.189868 7.35722,8.3999 4.04647,4.210035 10.5538,11.675979 14.46075,16.590988 3.90694,4.91501 8.48952,10.56596 10.18352,12.55767 3.06799,3.60715 8.59008,11.76469 8.59008,12.68973 0,0.26744 2.51161,4.71649 5.58134,9.88676 3.06974,5.17026 5.58134,9.89868 5.58134,10.50757 0,0.60889 0.86717,2.90531 1.92704,5.10315 3.97609,8.24512 12.10493,34.49597 15.69245,50.67638 5.85844,26.42274 6.70177,75.34668 1.65304,95.89758 -0.4799,1.95347 -1.13347,5.29552 -1.45236,7.42678 -1.35881,9.08122 -3.81218,19.00951 -6.65672,26.93833 -1.67482,4.66838 -3.04513,9.32478 -3.04513,10.34755 0,2.06556 -16.33613,34.65373 -20.57146,41.03703 -9.43132,14.21451 -22.22841,30.22319 -31.63969,39.5801 -14.70756,14.62259 -37.05652,32.82968 -40.44406,32.94866 -0.44922,0.0158 -3.42832,1.74114 -6.62022,3.83415 -3.19188,2.093 -6.70591,4.38827 -7.80893,5.10062 -1.10303,0.71233 -5.20208,2.82523 -9.10901,4.6953 -3.90695,1.87009 -10.94109,5.283 -15.63145,7.58425 -4.69035,2.30125 -9.02858,4.18692 -9.64049,4.19034 -0.61193,0.003 -2.27315,0.61194 -3.69163,1.35221 -2.53904,1.3251 -7.26775,2.61229 -24.31287,6.61821 -18.94858,4.45327 -23.34086,5.2783 -36.02502,6.76683 -7.25575,0.85148 -13.64892,1.66682 -14.20706,1.81186 -0.55813,0.14503 -4.89635,-0.0858 -9.64049,-0.51292 z m 28.41409,-5.45433 c 17.20781,-1.88628 34.23011,-5.06908 46.61842,-8.71665 6.67549,-1.9655 25.09636,-9.50605 26.98611,-11.04671 0.5759,-0.46952 4.76067,-2.41985 9.29947,-4.33408 4.5388,-1.91423 10.46079,-4.99875 13.15996,-6.85449 2.69917,-1.85573 8.3325,-5.6455 12.51851,-8.42168 7.77193,-5.15441 20.79233,-16.18054 32.32034,-27.37002 7.08037,-6.87245 23.49085,-26.23766 27.65857,-32.63855 10.88303,-16.71437 17.91106,-30.28256 23.65379,-45.6655 2.08362,-5.58135 4.66812,-12.37791 5.74336,-15.10347 1.07522,-2.72557 1.9527,-5.92215 1.94994,-7.10352 -0.003,-1.18139 0.63943,-4.20291 1.42708,-6.71451 3.93095,-12.53469 7.34806,-38.34831 7.79411,-58.87844 0.31971,-14.71561 -0.53577,-26.11707 -3.23447,-43.10788 -2.92425,-18.41073 -3.63284,-21.80427 -5.91326,-28.31928 -1.15391,-3.29665 -2.09801,-6.88118 -2.09801,-7.96564 0,-1.08445 -1.59829,-5.65992 -3.55177,-10.16771 -1.95347,-4.50778 -3.55176,-8.55681 -3.55176,-8.99786 0,-0.95113 -11.83078,-24.973 -15.17227,-30.80661 -1.27881,-2.23253 -4.23728,-6.57076 -6.57441,-9.6405 -2.33713,-3.06973 -5.95488,-7.86462 -8.03946,-10.65528 C 406.6601,83.539127 378.8108,56.216034 367.32622,49.443816 c -3.34881,-1.974717 -6.33307,-3.979197 -6.6317,-4.454396 -0.29862,-0.475199 -2.34329,-1.616224 -4.54368,-2.535611 -2.20041,-0.919387 -6.06597,-3.096658 -8.59015,-4.83838 -6.6882,-4.614958 -26.93685,-13.864515 -30.35149,-13.864515 -0.58354,0 -2.78893,-0.748279 -4.90087,-1.662843 -6.58826,-2.853006 -7.64649,-3.214755 -17.53954,-5.995709 -22.79961,-6.4090047 -44.43625,-8.793637 -74.04132,-8.1602913 -12.02095,0.2571661 -26.1945,1.1257227 -31.49677,1.9301258 -12.46677,1.8913215 -30.08935,6.6812845 -39.0781,10.6217475 -3.90214,1.710613 -10.94309,4.51306 -15.64655,6.22766 -28.53844,10.40342 -67.635298,40.79315 -89.127731,69.278398 -15.908002,21.083858 -31.769105,49.365408 -37.171522,66.279638 -1.4261467,4.46508 -3.9885965,12.49413 -5.6943319,17.84235 -1.70573663,5.34821 -3.7572515,13.79634 -4.5589227,18.7736 -0.8016712,4.97727 -2.0988557,12.24617 -2.8826318,16.1531 -1.6838564,8.39363 -1.4863069,6.13233 -2.3219047,26.57843 -0.9535277,23.33172 0.6213609,38.74863 6.82202747,66.78219 2.23433943,10.10158 6.79613083,24.83329 8.15446173,26.33379 0.4799932,0.53023 0.8751601,1.67186 0.8781513,2.53696 0.00701,2.03918 9.8002856,21.31089 16.8302746,33.11962 3.019309,5.07174 5.489652,9.75246 5.489652,10.40159 0,0.64914 0.465867,1.18027 1.03526,1.18027 0.569393,0 3.165765,3.31074 5.769715,7.35722 2.603951,4.04648 7.047127,10.04607 9.873726,13.33245 10.587201,12.30933 30.546318,31.49926 36.003882,34.61635 0.977217,0.55813 3.793873,2.67328 6.259244,4.70034 2.465382,2.02706 6.994106,4.94022 10.063841,6.47366 3.069739,1.53346 8.549609,4.67398 12.177469,6.97893 3.62787,2.30496 10.24937,5.75116 14.71445,7.65821 4.46507,1.90705 10.85825,4.69743 14.20705,6.20083 3.3488,1.5034 7.56764,3.0565 9.37516,3.45133 1.80753,0.39482 3.54695,1.13939 3.86535,1.65458 0.31841,0.51519 1.51341,0.93671 2.65555,0.93671 1.14216,0 5.79592,1.11379 10.34171,2.47509 11.69959,3.50358 26.07831,5.63361 44.29008,6.561 18.03666,0.91846 27.42547,0.61832 46.6803,-1.49235 z m 61.4962,-46.59043 c -3.81538,-1.35969 -4.56166,-2.00516 -6.76261,-5.84906 -1.45382,-2.53907 -8.83542,-5.84308 -13.06414,-5.84751 -8.00945,-0.008 -14.09276,-8.01303 -11.09308,-14.59662 0.91702,-2.01263 0.89342,-2.93681 -0.10575,-4.14074 -1.06762,-1.28639 -0.82234,-2.15807 1.44295,-5.12803 l 2.72923,-3.5782 -2.60694,-3.09819 c -3.05307,-3.62836 -3.18406,-4.97135 -0.94513,-9.68955 1.65893,-3.49594 6.16167,-6.49127 11.79288,-7.8449 3.67035,-0.88227 8.87066,1.75611 8.87066,4.50053 0,2.00036 -0.0488,1.99784 -2.95782,-0.15291 -3.5358,-2.61414 -7.24991,-2.79225 -10.72637,-0.51438 -2.03003,1.33012 -2.55244,2.5121 -2.55244,5.7749 0,5.0643 1.48965,8.02821 4.03497,8.02821 2.88441,0 3.43568,1.78053 0.80001,2.58395 -5.06218,1.54305 -7.87387,6.85092 -4.34619,8.20463 1.11658,0.42847 1.24719,1.05611 0.50741,2.43841 -3.76042,7.0264 2.61145,15.0772 11.27961,14.25171 0.8913,-0.0848 2.20301,0.54752 2.91493,1.40532 0.71191,0.85781 2.15298,1.55965 3.20236,1.55965 1.04938,0 3.5295,1.79485 5.51137,3.98857 3.77743,4.18115 9.92418,6.39474 15.041,5.4166 3.182,-0.60828 6.44253,-4.10125 6.88478,-7.37559 0.30713,-2.27395 0.91061,-2.58957 5.82079,-3.04436 6.60608,-0.61187 8.68277,-2.77574 5.76165,-6.00354 -1.82638,-2.01814 -1.81054,-2.0847 0.72602,-3.04909 1.54642,-0.58794 2.72693,-1.92963 2.92459,-3.32387 0.22787,-1.60736 1.12422,-2.44614 2.86842,-2.68416 4.20585,-0.57398 6.08874,-3.04033 6.08874,-7.9755 0,-5.67596 -3.3385,-9.4371 -8.37663,-9.4371 -3.788,0 -5.83043,1.5042 -5.83043,4.29396 0,2.31952 -2.95612,3.57953 -4.09076,1.74363 -2.04347,-3.3064 4.51531,-8.06717 11.11394,-8.06717 5.10975,0 8.0157,1.99003 9.82534,6.72851 2.142,5.60876 0.74748,9.52944 -4.53675,12.75494 -5.08661,3.10488 -6.33237,4.90297 -5.73244,8.27399 0.65808,3.69779 -4.11011,8.50357 -8.89738,8.9675 -2.36394,0.22909 -3.6059,1.06291 -4.5585,3.0605 -1.7444,3.65797 -6.03592,6.58799 -11.49108,7.84553 -5.71907,1.31837 -6.68726,1.28285 -11.46721,-0.42057 z M 90.796138,427.44405 c 0,-3.49746 3.464546,-11.1982 5.695769,-12.66015 2.285563,-1.49756 3.900453,-1.46464 9.207383,0.18772 1.96552,0.61198 2.20801,0.32959 2.12819,-2.47825 -0.05,-1.76024 0.76828,-4.17362 1.84087,-5.429 3.16499,-3.70442 4.58141,-6.78437 5.40799,-11.75955 2.8776,-17.32023 4.47971,-23.49797 7.99745,-30.83841 0.2006,-0.41859 -0.24413,-0.75218 -0.98832,-0.74131 -0.74418,0.0109 -4.09298,3.30386 -7.44178,7.31775 -9.69198,11.61686 -14.954179,17.08927 -17.895291,18.61018 -2.175202,1.12484 -4.68248,1.22509 -12.209407,0.48815 -18.768482,-1.83755 -22.29543,-5.27397 -11.195615,-10.90825 7.013491,-3.56005 10.592188,-3.37895 11.180909,0.56579 0.907713,6.08216 14.824084,-2.43766 20.811764,-12.74128 4.97011,-8.55257 11.25074,-15.38394 14.82773,-16.12794 5.16272,-1.07383 9.47221,-3.60868 14.96202,-8.80072 5.56919,-5.2671 5.58998,-5.30936 4.95755,-10.07687 -0.34931,-2.63317 -1.32998,-6.74894 -2.17928,-9.14615 -3.22807,-9.11142 -1.51079,-23.58934 3.58457,-30.22052 2.37782,-3.09453 3.86539,-2.01381 2.21472,1.60901 -2.2641,4.96915 -2.46721,13.66594 -0.53087,22.73077 1.0134,4.74413 1.83083,11.36564 1.81651,14.71445 -0.0236,5.49281 -0.58508,7.08424 -5.73791,16.26022 -3.14153,5.59433 -7.28806,11.75917 -9.21452,13.69966 -3.56242,3.58837 -4.29241,5.6027 -8.8175,24.33134 -2.50896,10.38414 -5.59134,20.5534 -7.06394,23.30495 -0.8189,1.53012 -0.88526,2.61908 -0.20127,3.30306 1.52938,1.52938 2.99006,0.14925 3.73941,-3.53319 1.16393,-5.7198 2.60092,-10.12328 7.69555,-23.58221 3.07436,-8.1218 8.9531,-16.70002 14.71471,-21.47164 2.58877,-2.14395 8.0561,-6.98051 12.14962,-10.74792 4.09353,-3.7674 7.93962,-6.84983 8.54691,-6.84983 0.60728,0 5.31182,-4.25194 10.45454,-9.44877 7.73514,-7.81653 10.84045,-10.17357 17.9761,-13.64453 4.74414,-2.30767 10.68065,-4.46027 13.19226,-4.78358 2.5116,-0.3233 6.39318,-0.79793 8.6257,-1.05474 2.23254,-0.2568 4.56616,-1.15874 5.18583,-2.00427 1.5357,-2.09551 3.04609,-1.93117 5.58489,0.60763 1.82518,1.82518 2.88432,2.04694 7.10352,1.48724 3.91267,-0.51903 4.95853,-0.35429 4.95853,0.78107 0,2.07792 4.36544,2.60185 8.20998,0.98534 3.18284,-1.33828 6.5399,-0.39236 4.05591,1.14283 -2.65111,1.63848 -0.63091,2.59163 5.49292,2.59163 3.62788,0 6.59612,-0.44493 6.59612,-0.98873 0,-1.41357 5.56125,-4.09778 8.32162,-4.01654 l 2.33368,0.0686 -2.28328,1.10118 c -1.25581,0.60565 -2.28328,1.71639 -2.28328,2.4683 0,1.98272 9.76147,1.8774 10.8778,-0.11737 0.64972,-1.16099 8.16779,-4.60426 10.05297,-4.60426 1.23869,0 0.0441,1.70343 -1.78836,2.55003 -1.19249,0.55095 -2.08475,1.45839 -1.98279,2.01651 0.24899,1.36315 6.53615,0.96274 7.00579,-0.44615 0.54474,-1.63423 3.21756,-4.12039 4.42975,-4.12039 0.57798,0 0.78803,0.68498 0.46675,1.52218 -0.43837,1.14239 0.16754,1.52219 2.4284,1.52219 1.6569,0 3.01253,-0.27678 3.01253,-0.61506 0,-0.33829 -1.4044,-2.38827 -3.1209,-4.55552 -3.53291,-4.46066 -3.55791,-7.35529 -0.0678,-7.85153 2.1344,-0.30348 2.30722,-0.0428 1.72597,2.60355 -0.47712,2.17235 -0.0667,3.67716 1.57065,5.75871 2.28707,2.90754 4.23051,3.09667 11.05478,1.07584 2.08983,-0.61886 2.3134,-0.5123 1.26848,0.60455 -0.69766,0.74568 -1.26848,1.74181 -1.26848,2.21361 0,1.33555 7.25564,-0.28189 10.77506,-2.402 3.85373,-2.3215 5.60208,-2.43831 4.7892,-0.31995 -0.50443,1.31453 0.10703,1.51944 3.57093,1.19659 2.29877,-0.21423 4.48973,-0.69967 4.8688,-1.07874 1.25077,-1.25077 3.39531,-0.71708 3.39531,0.84498 0,1.2403 0.8261,1.39749 4.31285,0.82062 2.37208,-0.39245 5.22617,-0.59491 6.34244,-0.4499 1.11626,0.14499 3.97036,0.28981 6.34243,0.32181 3.08091,0.0416 4.31285,0.482 4.31285,1.54191 0,1.16877 0.86162,1.33815 4.05916,0.79792 3.31941,-0.5608 4.05917,-0.39212 4.05917,0.9256 0,1.16505 0.98378,1.61138 3.55175,1.61138 3.9026,0 4.79019,1.46901 1.42007,2.35031 -3.08709,0.8073 -1.43264,2.60267 2.30057,2.49652 3.17916,-0.0904 5.91986,2.21872 5.91986,4.98762 0,0.73053 0.69369,1.32823 1.54152,1.32823 1.16669,0 1.37487,-0.66393 0.85622,-2.73045 -0.67194,-2.67717 -0.62443,-2.66233 2.43378,0.76038 3.21779,3.60135 4.97067,3.64723 3.84502,0.10062 -1.74383,-5.49434 -9.98147,-10.87475 -22.88359,-14.94645 -3.06974,-0.96877 -10.04153,-3.51747 -15.49289,-5.6638 -5.45134,-2.14632 -11.61619,-4.33369 -13.69964,-4.86081 -10.66293,-2.69777 -13.22343,-4.15698 -15.39288,-8.77226 -1.15219,-2.45119 -2.09489,-4.94827 -2.09489,-5.54906 0,-1.77328 -7.01625,-16.43232 -8.81778,-18.42298 -0.91075,-1.00639 -1.42761,-2.05813 -1.14854,-2.33719 0.68811,-0.68813 3.55334,2.58323 7.34745,8.38895 l 3.14714,4.81575 10.64485,0.60885 c 5.85466,0.33486 11.67232,0.93644 12.92812,1.33686 3.24137,1.03352 3.03573,-1.91329 -0.28537,-4.08935 -4.54327,-2.97687 -1.76828,-2.75571 3.17303,0.25289 5.42595,3.30367 14.61745,11.76179 14.61745,13.45112 0,1.38619 -2.69808,1.49098 -3.53472,0.13729 -0.33557,-0.54298 -2.41,-1.47187 -4.60984,-2.06424 -3.1483,-0.84774 -4.60828,-0.7623 -6.85866,0.40141 -2.6555,1.37323 -7.30644,8.12136 -6.26284,9.08693 0.25459,0.23555 3.65948,1.60563 7.56641,3.04463 3.90694,1.43901 10.20672,3.77592 13.99951,5.19314 8.54462,3.19278 9.24124,3.19352 10.69116,0.0113 0.64289,-1.411 1.97199,-2.85771 2.95356,-3.21493 0.98155,-0.3572 3.95795,-2.88721 6.6142,-5.62223 3.38142,-3.48169 5.48754,-4.87588 7.02403,-4.64969 3.82423,0.56298 2.99051,2.2137 -3.75091,7.42659 -3.60895,2.79068 -6.56594,5.41644 -6.5711,5.83504 -0.005,0.41861 1.39865,0.76109 3.11955,0.76109 4.29385,0 3.34543,2.273 -1.45315,3.48267 -2.06328,0.52014 -3.6013,1.39604 -3.41783,1.94647 0.39516,1.18548 9.0451,4.79552 17.1542,7.15926 3.92222,1.14331 6.62039,2.69107 8.42036,4.83022 3.16038,3.75589 2.9777,5.82739 -0.6957,7.88921 -3.04155,1.70718 -4.79961,0.89966 -2.93434,-1.34784 1.28182,-1.54451 0.96875,-2.01421 -3.45845,-5.18872 -1.80386,-1.29345 -1.83208,-1.45889 -0.2537,-1.48757 2.21792,-0.0404 2.32283,-1.63483 0.16213,-2.46397 -1.93883,-0.744 -3.72431,0.16856 -2.90946,1.48702 0.32112,0.51957 0.0507,0.94467 -0.60085,0.94467 -1.69493,0 -0.28923,5.21661 1.91415,7.10353 1.94493,1.66558 1.55185,6.16881 -0.94584,10.8358 -1.69308,3.16354 -7.31006,3.03386 -7.81912,-0.18052 -0.68715,-4.33897 -0.99648,-4.62368 -3.69009,-3.3964 -4.74446,2.16173 -7.23146,-2.66802 -4.48162,-8.70326 1.56398,-3.43258 -0.31673,-5.65915 -4.78012,-5.65915 -3.92817,0 -5.53358,1.81002 -3.1508,3.55235 1.97683,1.4455 1.18182,2.64432 -1.1969,1.80483 -3.15287,-1.1127 -5.2717,-3.62216 -4.667,-5.52744 0.85029,-2.679 -1.7648,-2.36219 -4.49562,0.54465 -1.24213,1.32218 -5.09935,4.33049 -8.57161,6.68512 -6.43753,4.36547 -10.83435,9.67093 -10.83435,13.07337 0,1.04233 1.33433,7.32774 2.96517,13.96759 3.38616,13.7865 4.04384,18.45111 2.66159,18.87718 -0.53314,0.16432 -1.3204,-1.52783 -1.74946,-3.76037 -0.42905,-2.23253 -1.70577,-7.94072 -2.83713,-12.68486 -1.78796,-7.49739 -2.71649,-11.94792 -2.99434,-14.35218 -0.15139,-1.31001 -3.19917,-1.80403 -5.5696,-0.9028 -1.6692,0.63463 -3.06653,2.62011 -4.45421,6.329 -2.89272,7.73151 -9.24142,20.85195 -9.29084,19.20076 -0.023,-0.7674 1.07064,-3.964 2.43022,-7.10352 5.61431,-12.96447 9.7055,-22.84835 9.7055,-23.44742 0,-0.3508 -1.5983,-2.38274 -3.55177,-4.51542 -3.78696,-4.13441 -4.44151,-6.38915 -2.11402,-7.28231 2.20385,-0.84569 6.99632,-8.60785 5.95657,-9.64761 -0.52745,-0.52744 -2.93451,0.38538 -5.78786,2.19492 -5.59423,3.54775 -7.86273,3.53879 -8.70625,-0.0344 -0.47052,-1.99316 -1.52529,-2.71066 -5.11843,-3.48178 -5.81596,-1.24813 -14.76806,-1.36133 -15.8581,-0.20053 -0.46484,0.49501 -0.16457,1.14047 0.66726,1.43436 1.54482,0.54579 3.98923,3.05926 9.99523,10.27762 l 3.38934,4.07349 -1.64181,4.94302 c -1.44658,4.35528 -2.21158,5.19568 -6.4337,7.06791 -2.63555,1.16869 -9.58678,4.2848 -15.4472,6.92471 -5.8604,2.6399 -11.53993,4.74598 -12.62118,4.68018 -3.47026,-0.21119 -9.83771,-7.60256 -10.78808,-12.52285 -1.95893,-10.1418 -0.3811,-16.46787 4.79881,-19.24007 3.12091,-1.67025 7.11634,0.0983 8.51133,3.76734 1.24187,3.26635 0.28333,4.60881 -1.52498,2.13578 -1.61118,-2.20342 -4.61252,-1.29486 -4.61252,1.39629 0,1.05654 0.38336,1.92101 0.8519,1.92101 0.46855,0 1.37207,1.14164 2.00782,2.53697 1.11187,2.4403 -0.0181,3.65699 -1.36799,1.47291 -0.44888,-0.72632 -1.1161,-0.68357 -2.10199,0.13464 -1.09458,0.90843 -1.16548,1.53471 -0.29278,2.58625 1.43879,1.73363 3.61426,1.79401 4.29012,0.11906 0.40948,-1.0148 0.52787,-1.0148 0.59196,0 0.10833,1.71531 2.15755,1.59529 6.06777,-0.35538 3.84035,-1.91582 3.96267,-5.1296 0.17915,-4.70679 -2.01499,0.22517 -2.18241,0.0326 -1.10264,-1.26848 3.09834,-3.73328 9.05724,-0.12262 7.79071,4.72058 -0.79491,3.03973 2.32433,3.66005 4.55461,0.90577 3.0266,-3.73769 2.29443,-5.76908 -3.6665,-10.17268 -3.0459,-2.25014 -5.79563,-4.09117 -6.11049,-4.09117 -0.31487,0 -2.42003,-1.22265 -4.67814,-2.71699 -3.99712,-2.64518 -4.53979,-2.72102 -20.52772,-2.86874 -9.03214,-0.0834 -18.93368,-0.68677 -22.00341,-1.34069 -11.39101,-2.4266 -22.22072,-3.15953 -31.24204,-2.11439 -14.31472,1.65839 -21.49494,5.56506 -28.31434,15.40545 -1.50069,2.1655 -4.45895,4.82007 -6.57391,5.89905 -2.11496,1.07896 -6.22068,4.92589 -9.12383,8.5487 -2.90314,3.6228 -5.57094,6.58691 -5.92846,6.58691 -1.33775,0 -9.5042,7.63769 -14.20117,13.28167 -2.82601,3.3958 -5.60125,8.11441 -6.61756,11.25157 -0.96271,2.97168 -2.33067,6.77302 -3.03992,8.44742 -2.77936,6.56153 -4.34182,11.33655 -4.99605,15.26841 -0.56542,3.39813 -1.76689,5.04356 -6.97139,9.54751 -6.8909,5.96334 -14.8775,10.11033 -21.071176,10.94108 -3.05952,0.41037 -3.990656,0.19108 -3.990656,-0.93977 z m 12.177472,-6.48769 c 0,-0.88371 -0.54227,-1.42599 -1.20506,-1.20506 -1.881647,0.62722 -2.193728,2.81181 -0.40169,2.81181 0.88371,0 1.60675,-0.72304 1.60675,-1.60675 z m -8.778602,-34.45078 c -0.382263,-0.99617 0.08463,-1.48967 1.409229,-1.48967 2.017666,0 6.094533,-3.6427 5.142443,-4.59478 -1.046857,-1.04685 -8.427294,2.17171 -8.121095,3.54155 0.169003,0.75605 -0.287654,1.75897 -1.014785,2.22872 -1.06709,0.68938 -1.037842,1.03687 0.151679,1.80192 1.888729,1.21473 3.16908,0.43168 2.432529,-1.48774 z m 8.778602,-8.02592 c 0,-0.24612 -0.45665,-0.72973 -1.01479,-1.07468 -0.55814,-0.34494 -1.01478,-0.14356 -1.01478,0.44751 0,0.59108 0.45664,1.07468 1.01478,1.07468 0.55814,0 1.01479,-0.20138 1.01479,-0.44751 z m 4.49525,-3.72702 c -0.72878,-1.17919 -4.21505,-1.15898 -4.94908,0.0288 -0.31549,0.51046 6e-5,1.12112 0.7012,1.35702 1.88468,0.63409 4.89024,-0.34636 4.24788,-1.38572 z m 1.59348,-3.22787 c 0,-2.14309 9.52208,-8.75777 14.91078,-10.35806 5.49353,-1.6314 7.82473,-3.74589 11.84383,-10.7428 4.5523,-7.92519 3.24491,-9.03886 -4.29328,-3.65709 -2.58638,1.84651 -6.70442,4.22669 -9.15118,5.28931 -3.66801,1.593 -5.47646,3.48411 -10.30556,10.77667 -3.2213,4.86454 -5.59568,9.10585 -5.2764,9.42513 1.02393,1.02393 2.27181,0.62121 2.27181,-0.73316 z m 177.58813,-16.63858 c 9.8726,-3.94199 16.23663,-7.8168 16.23663,-9.88587 0,-0.78362 0.2471,-2.06874 0.54913,-2.85581 0.31598,-0.82341 -2.05393,-4.53899 -5.58133,-8.75056 -3.37177,-4.02573 -6.13049,-7.75734 -6.13049,-8.29247 0,-1.25925 -4.2133,-1.24991 -7.54486,0.0167 -3.05204,1.16038 -3.43043,3.6849 -0.68302,4.55689 1.056,0.33516 2.12571,1.39341 2.37712,2.35167 0.25139,0.95824 1.78484,2.41243 3.40763,3.23153 2.86907,1.44814 7.40704,5.90326 7.48059,7.34402 0.0952,1.86565 -6.03643,6.38765 -12.90688,9.51862 -8.88033,4.04689 -12.42636,4.44965 -12.42636,1.41137 0,-1.87684 -3.33108,-4.03404 -6.22921,-4.03404 -2.18584,0 -0.20199,3.45096 2.8642,4.98235 1.77712,0.88759 3.4516,2.43116 3.72105,3.43018 0.6057,2.24563 2.76892,1.80549 14.8658,-3.02462 z m -7.29802,-4.44923 c -0.20001,-0.6 -0.79746,-1.0909 -1.32769,-1.0909 -0.53022,0 -1.12768,0.4909 -1.32769,1.0909 -0.19998,0.6 0.39746,1.09089 1.32769,1.09089 0.93022,0 1.52768,-0.49089 1.32769,-1.09089 z m 108.39965,-7.69187 c 0.69827,-2.78209 -0.39482,-5.51253 -2.48588,-6.20954 -1.29149,-0.4305 -1.56709,2.84883 -0.55638,6.62029 0.82309,3.07133 2.21549,2.88334 3.04226,-0.41075 z m -40.91755,-7.24723 c 9.4809,-6.57731 13.44146,-10.20351 12.32826,-11.2874 -1.70781,-1.66282 -16.94414,-3.09563 -23.80246,-2.23834 -0.55812,0.0697 -1.01479,1.40414 -1.01479,2.96527 0,1.97435 -1.23568,4.04503 -4.05916,6.80208 -4.30075,4.19958 -4.87782,6.10341 -2.73727,9.03078 1.20188,1.64368 1.44345,1.66128 2.66123,0.19395 2.07386,-2.49884 6.80257,-2.08365 7.62462,0.66947 0.666,2.23048 0.70527,2.23634 1.69836,0.25369 0.55914,-1.11627 3.84468,-3.99154 7.30121,-6.3895 z m 35.35833,4.35993 c 0,-0.53024 -0.4909,-1.12769 -1.0909,-1.32769 -0.59999,-0.20001 -1.0909,0.39746 -1.0909,1.32769 0,0.93022 0.49091,1.52767 1.0909,1.32768 0.6,-0.2 1.0909,-0.79746 1.0909,-1.32768 z m -114.82341,-5.25085 c 0,-1.79679 -0.97539,-1.6955 -3.21815,0.33418 -1.02069,0.92369 -1.85579,2.6016 -1.85579,3.72865 0,1.96662 0.10222,1.95315 2.53697,-0.33418 1.39534,-1.31085 2.53697,-2.98874 2.53697,-3.72865 z m 111.62683,3.89779 c 0,-1.32133 -1.20636,-2.2001 -2.18768,-1.59361 -1.04951,0.64864 -0.14456,2.43926 1.23277,2.43926 0.52519,0 0.95491,-0.38054 0.95491,-0.84565 z m -56.96849,-12.97144 c 2.91556,-2.04213 1.43404,-3.97905 -2.32239,-3.03625 -1.70581,0.42814 -2.61127,1.35243 -2.61127,2.66563 0,2.43705 1.79129,2.57162 4.93366,0.37062 z m 16.15076,-26.71727 c 4.06042,-3.70863 4.24102,-5.40252 0.47985,-4.50067 -4.35865,1.04511 -8.37202,3.34986 -8.37202,4.80779 0,3.67347 3.69125,3.52982 7.89217,-0.30712 z m 0.53063,-6.91391 c 10.94944,-1.01053 0.3955,-4.62571 -11.46717,-3.92799 -5.16189,0.3036 -5.56088,0.50533 -5.30912,2.68414 0.50626,4.38145 1.84716,4.99654 7.11848,3.2654 2.63274,-0.8646 6.97874,-1.7743 9.65781,-2.02155 z m -9.42204,66.02807 c 0.008,-1.00967 0.4582,-2.52075 0.99924,-3.35795 0.76942,-1.19059 0.9871,-0.92731 0.99926,1.2086 0.008,1.50192 -0.44111,3.013 -0.99926,3.35795 -0.55812,0.34495 -1.00779,-0.19893 -0.99924,-1.2086 z m -47.60482,-43.86264 c -1.9178,-1.21435 -0.58183,-4.38561 1.66699,-3.95698 2.09789,0.39986 3.10217,4.89271 1.08844,4.86934 -0.73649,-0.008 -1.97643,-0.4191 -2.75543,-0.91236 z m -78.12091,-5.06292 c -1.72831,-1.09469 -0.83326,-2.72001 1.89008,-3.43217 1.63219,-0.42683 2.04539,-0.0416 2.04539,1.90707 0,2.51088 -1.47604,3.08288 -3.93547,1.5251 z M 97.916983,306.11604 c 0.0091,-0.4186 2.406967,-1.80716 5.327637,-3.08567 5.13596,-2.24824 11.90646,-7.43842 11.90646,-9.12734 0,-0.98681 5.98104,-3.26253 8.57457,-3.26253 3.37371,0 -6.60865,7.91687 -15.36393,12.18491 -8.29101,4.04172 -10.4775,4.73057 -10.444737,3.29063 z m 20.278457,-0.0658 c 0,-0.45476 1.56572,-1.57347 3.47936,-2.48602 2.12015,-1.01103 5.10497,-4.05301 7.64067,-7.78701 2.62493,-3.86538 5.10446,-6.36454 6.71581,-6.76896 4.10246,-1.02965 3.99064,0.18515 -0.54305,5.89895 -5.54848,6.99272 -17.29279,14.56047 -17.29279,11.14304 z m 255.66844,-1.45644 c -1.06952,-4.64075 -0.57209,-8.67671 1.51755,-12.31255 1.3206,-2.29779 2.71134,-5.66589 3.09055,-7.48469 0.90768,-4.35357 2.93091,-3.08013 2.10458,1.32463 -0.45101,2.40411 -0.20782,3.60392 0.85062,4.19664 2.14561,1.20151 -0.1315,9.27346 -3.44568,12.21432 -2.23337,1.9818 -3.93919,2.83589 -4.11762,2.06165 z m -191.7367,-1.75471 c -1.33309,-0.84299 -1.30458,-1.18023 0.22953,-2.71474 1.96071,-1.96122 2.26439,-1.82865 3.26455,1.42508 0.76017,2.47304 -0.74444,3.02838 -3.49408,1.28966 z m 100.68187,-1.94286 c -1.83372,-1.89414 -3.1682,-3.94909 -2.96551,-4.56656 0.2027,-0.61747 2.38799,-1.24829 4.85622,-1.40181 2.46822,-0.15353 3.95089,0.0808 3.2948,0.52057 -0.6561,0.43983 -1.34108,2.62039 -1.5222,4.84568 l -0.32928,4.046 z M 93.333113,300.60686 c 2.232537,-1.16676 5.744332,-3.63234 7.803997,-5.47908 4.52372,-4.05608 8.26427,-6.0517 12.99918,-6.93519 l 3.55177,-0.66272 -3.04437,1.6988 c -1.6744,0.93436 -4.64266,2.94317 -6.59613,4.46402 -5.25111,4.08821 -14.596813,9.13173 -16.826081,9.08039 -1.290025,-0.0298 -0.577132,-0.76104 2.111634,-2.16622 z m -17.976978,-3.89673 c 4.066015,-1.06528 11.676071,-3.97916 16.911242,-6.47525 11.383573,-5.42764 18.669023,-7.71274 24.590073,-7.71274 6.23222,0 5.4394,1.6906 -1.04499,2.22834 -3.39999,0.28195 -7.71279,1.63951 -11.54552,3.63422 -11.412338,5.93948 -25.845365,10.44295 -33.068465,10.31819 -2.29807,-0.0397 -1.093832,-0.61687 4.15766,-1.99276 z m 295.123025,-4.63047 c -0.90975,-2.37074 -0.748,-10.01689 0.23544,-11.13044 1.55387,-1.75945 3.71723,-13.05792 3.57629,-18.67767 -0.12752,-5.0847 -0.0169,-5.37434 1.3567,-3.55176 2.12714,2.82244 1.17892,18.12135 -1.71113,27.60781 -1.23275,4.04648 -2.37637,7.35723 -2.54135,7.35723 -0.16499,0 -0.57717,-0.72233 -0.91595,-1.60517 z M 67.94859,289.64965 c 0.353081,-0.5713 1.770413,-1.03873 3.149626,-1.03873 2.131762,0 6.703573,-1.60436 17.160948,-6.0222 3.258432,-1.37656 12.562326,-3.11969 16.060346,-3.00897 l 3.22066,0.10194 -3.83844,0.90385 c -2.11115,0.49712 -5.114407,1.56367 -6.673895,2.37011 -6.429122,3.32463 -30.408406,8.84461 -29.079245,6.694 z m 200.6085,-4.84419 c -1.33149,-2.58885 -0.35265,-4.31286 2.44871,-4.31286 2.04837,0 2.4524,0.50157 2.4524,3.04437 0,2.34967 -0.45497,3.04438 -1.99387,3.04438 -1.09662,0 -2.40488,-0.79915 -2.90724,-1.77589 z m -127.03565,-1.02161 c -4.96505,-2.43757 -8.60764,-6.48827 -11.89757,-13.23051 -1.9866,-4.07128 -4.42737,-7.83869 -5.42392,-8.37203 -0.99655,-0.53333 -10.17589,-0.98959 -20.39854,-1.01389 -10.22263,-0.0243 -20.641564,-0.48279 -23.153163,-1.01883 -2.511602,-0.53604 -7.29616,-1.45615 -10.632347,-2.0447 -8.429702,-1.4871 -21.110185,-7.71262 -28.944435,-14.21033 -9.447259,-7.83555 -10.980035,-9.86077 -12.219781,-16.14562 -0.608178,-3.08315 -1.496402,-6.97568 -1.973832,-8.65008 -0.899024,-3.15299 -0.768636,-13.28272 0.183223,-14.23458 0.297574,-0.29757 0.769078,2.55515 1.047785,6.33937 0.278708,3.78422 1.338246,9.84868 2.354529,13.47655 1.562464,5.57759 2.730163,7.45796 7.562186,12.17747 5.85556,5.71922 13.724768,10.37207 25.371255,15.00137 6.292328,2.5011 7.62367,2.63435 28.90612,2.89315 12.2705,0.14921 23.33255,0.52794 24.58233,0.84161 4.72242,1.18526 14.35145,9.24847 14.46593,12.11355 0.02,0.50237 1.27197,3.35338 2.78199,6.33557 2.27878,4.50042 3.30917,5.52791 6.06132,6.04422 3.34599,0.62771 13.08665,-1.14894 15.13163,-2.75993 4.21398,-3.3197 29.1346,-8.72274 34.278,-7.43183 1.8942,0.47541 2.8226,0.22106 3.249,-0.89012 1.25578,-3.2725 14.40763,-7.68521 13.39585,-4.49458 -0.93237,2.94021 -17.46404,9.75827 -30.01717,12.37978 -6.8703,1.43475 -14.3099,3.53634 -16.53244,4.67019 -4.21346,2.14955 -15.51369,3.53221 -18.17795,2.2242 z m -96.137121,-1.93384 c -7.359214,-0.78374 -4.749922,-1.86358 4.566164,-1.88968 9.377144,-0.0263 11.821881,-0.31255 25.623817,-3.00063 14.209842,-2.76752 20.223981,-3.27922 28.84146,-2.45391 4.5091,0.43185 8.76918,0.81389 9.46683,0.84902 0.69767,0.0352 1.26894,0.40634 1.26949,0.82494 5.4e-4,0.41861 -4.67718,0.60067 -10.39494,0.40458 -10.012232,-0.34335 -15.287435,0.36427 -26.645866,3.57428 -5.228445,1.47761 -25.093852,2.50429 -32.726955,1.6914 z m 320.755511,-1.8648 c -1.87404,-3.46528 -4.39433,-15.10705 -4.40781,-20.36062 -0.0126,-4.91421 -4.58173,-16.14337 -7.23624,-17.78395 -0.74712,-0.46174 -0.75614,-0.87492 -0.029,-1.32437 1.4722,-0.90989 5.54636,4.72855 9.46049,13.09284 2.71686,5.80579 3.37758,8.60379 3.71925,15.75013 0.22851,4.77957 0.22993,9.58235 0.003,10.67285 -0.40565,1.95055 -0.43013,1.94978 -1.50993,-0.0468 z m -163.71687,-3.95059 c 0,-1.6095 2.15201,-2.64554 5.49521,-2.64554 2.976,0 3.89891,0.99972 2.49005,2.6973 -1.53497,1.84952 -7.98526,1.80772 -7.98526,-0.0517 z m 21.386,0.0634 c -2.47013,-0.65276 -4.65897,-1.70268 -4.86411,-2.33318 -0.5782,-1.77712 8.19854,-6.4144 13.52092,-7.14391 3.49283,-0.47875 4.58202,-0.33902 4.05131,0.51967 -0.39922,0.64596 -2.00218,1.17446 -3.56214,1.17446 -3.10208,0 -8.71561,4.44418 -7.69645,6.09322 0.34342,0.55567 1.51076,1.01031 2.59409,1.01031 1.08333,0 1.96969,0.45666 1.96969,1.01478 0,1.2065 -0.22648,1.19386 -6.01331,-0.33535 z m 25.04061,-0.24508 c -1.53487,-0.83267 -2.79067,-2.17565 -2.79067,-2.9844 0,-0.80874 1.2558,-1.74561 2.79067,-2.08193 1.53487,-0.33631 3.28873,-0.75942 3.89749,-0.94024 0.60874,-0.1808 1.68023,0.0256 2.38106,0.4588 0.85845,0.53054 0.19805,1.16271 -2.02377,1.93724 -3.22064,1.12272 -3.25497,1.19729 -1.4627,3.17773 2.15792,2.38449 1.10601,2.54755 -2.79208,0.4328 z M 48.682384,272.93611 c -0.558133,-0.24314 -4.306877,-1.39611 -8.330542,-2.56215 -6.998733,-2.0282 -13.487426,-6.07642 -13.487426,-8.41465 0,-0.60582 1.040476,-0.124 2.312169,1.07069 1.271693,1.19469 4.34621,2.88981 6.83226,3.76694 5.499022,1.94017 20.608574,3.58274 24.826479,2.6989 4.699728,-0.98479 23.897661,-0.54625 25.015356,0.57144 0.642319,0.64232 -1.430616,1.22154 -5.912112,1.65199 -9.917513,0.95255 -30.062583,1.73683 -31.256184,1.21684 z m 306.237626,-4.87467 c -1.39161,-1.7928 -8.82831,-16.61875 -11.07111,-22.07167 -1.03306,-2.5116 -3.66067,-6.51668 -5.83918,-8.90016 -4.90773,-5.36952 -4.30071,-6.48518 1.10759,-2.03572 8.163,6.71579 13.43454,16.50365 17.23063,31.99275 0.62264,2.54054 0.0643,2.93729 -1.42793,1.0148 z m -177.2314,-4.25994 c -1.82481,-2.78502 -0.49112,-4.57566 1.91854,-2.57582 1.16947,0.97056 2.09403,0.52397 4.77579,-2.30691 3.30233,-3.48596 19.16746,-11.91421 22.42699,-11.91421 2.80954,0 1.92258,1.75406 -1.4882,2.94306 -4.75976,1.65927 -13.04971,7.45783 -17.40041,12.17107 -4.47861,4.8518 -7.79857,5.39778 -10.23271,1.68281 z m -122.917489,0.82789 c -4.623133,-0.66381 -10.6075,-3.45043 -16.236629,-7.56059 -6.291413,-4.59374 -7.797735,-6.27168 -12.213834,-13.60533 -4.399557,-7.3062 -4.590186,-9.53022 -0.300737,-3.50865 6.085817,8.54332 11.108295,13.01884 16.514753,14.71624 2.823107,0.88634 6.046232,2.00734 7.162501,2.49111 3.910495,1.69471 13.249811,3.87843 19.536514,4.56803 7.723165,0.84716 9.373341,2.52578 2.482981,2.52578 -2.745711,0 -6.996722,0.18238 -9.446692,0.40527 -2.449969,0.2229 -5.824455,0.20856 -7.498857,-0.0319 z m 111.219659,-4.99797 c -2.52501,-4.27958 -2.66184,-5.52333 -0.60763,-5.52333 0.8372,0 1.52219,0.45665 1.52219,1.01478 0,2.35932 3.86355,0.66002 8.02325,-3.52884 6.19487,-6.23831 29.46505,-17.51705 34.23374,-16.59264 1.23461,0.23935 0.13333,1.02031 -3.18761,2.26045 -4.62669,1.72774 -16.53837,8.25019 -17.75881,9.72415 -0.27907,0.33704 -3.24732,2.8042 -6.59612,5.48257 -3.34881,2.67838 -7.14932,6.19792 -8.44557,7.82121 -3.08375,3.86174 -4.59843,3.72293 -7.18344,-0.65835 z m 172.63394,-1.00391 c -2.9849,-2.55496 -4.83909,-5.33933 -6.39225,-9.59902 -2.94278,-8.07083 -7.54341,-13.2126 -14.06574,-15.72014 -4.64731,-1.78668 -9.8695,-5.58478 -7.67879,-5.58478 2.6985,0 16.87987,8.08904 21.0971,12.03377 4.14589,3.878 9.37823,12.14166 13.74492,21.70797 0.9194,2.01416 -2.95,0.37655 -6.70524,-2.8378 z m -13.99742,-3.47118 c -2.42787,-0.98237 -8.23869,-6.58842 -10.82088,-10.43951 -0.97103,-1.44824 -5.40444,-4.57205 -9.85199,-6.9418 -4.44756,-2.36976 -8.31925,-4.91531 -8.60379,-5.65678 -0.69495,-1.81104 4.82455,-13.54942 9.92582,-21.1093 2.27063,-3.36497 8.19145,-10.22803 13.15741,-15.25124 9.8596,-9.97327 17.49985,-19.70414 23.5047,-29.93628 10.27525,-17.50885 21.45143,-32.16345 28.63502,-37.54721 3.84236,-2.87967 4.3599,-3.60784 2.73498,-3.84809 -1.71861,-0.25411 -13.46593,2.2989 -14.13293,3.07148 -0.12782,0.14807 -1.75149,2.78082 -3.60813,5.85057 -1.85665,3.06973 -5.5645,8.61337 -8.23968,12.31921 -2.67517,3.70585 -4.86396,7.00772 -4.86396,7.33753 0,0.3298 -1.65181,3.18185 -3.67072,6.3379 -2.0189,3.15605 -4.79231,8.18812 -6.16312,11.18239 -1.37083,2.99426 -2.84581,5.44411 -3.27773,5.44411 -0.43193,0 -1.19759,0.87857 -1.70149,1.95237 -0.50389,1.07379 -2.81992,4.15621 -5.14672,6.84982 -13.68026,15.83683 -17.76242,20.9129 -22.55841,28.05095 -2.93107,4.3624 -5.80276,9.38561 -6.38157,11.16269 -0.57879,1.77706 -1.98609,5.23558 -3.12732,7.68559 -2.7176,5.8341 -1.86683,7.04209 7.21332,10.24213 10.46096,3.68666 20.64809,12.97614 11.79272,10.75357 -1.46956,-0.36883 -4.80157,-2.61337 -7.40449,-4.98786 -5.26587,-4.80376 -9.89774,-7.24235 -10.84497,-5.70969 -0.89127,1.44213 0.241,2.79754 4.6755,5.59693 2.18562,1.37972 3.97386,3.18783 3.97386,4.01804 0,1.6974 -1.14213,1.96293 -2.58772,0.60157 -0.53022,-0.49934 -2.41268,-1.2128 -4.18323,-1.5855 -2.82887,-0.59545 -3.26097,-0.3931 -3.56376,1.66897 l -0.34457,2.3466 -1.78773,-2.64897 c -0.98326,-1.45691 -2.32644,-5.21719 -2.98485,-8.35616 -1.26896,-6.04983 -0.37944,-10.05327 4.54454,-20.45335 3.12048,-6.59085 16.04609,-25.08115 19.00969,-27.19367 2.98238,-2.1259 18.28215,-22.98428 18.28215,-24.92429 0,-1.02223 1.75878,-4.57978 3.9084,-7.90567 2.14963,-3.32589 4.54707,-7.25179 5.32766,-8.72424 1.85546,-3.50009 15.01723,-23.50989 17.75018,-26.98557 1.16815,-1.48561 5.96302,-10.16416 10.65529,-19.28564 5.04627,-9.80968 10.27289,-18.483978 12.79449,-21.234281 2.3447,-2.55736 4.03022,-5.026573 3.74557,-5.487141 -2.98869,-4.835802 -22.63246,10.262906 -28.38024,21.813782 -6.33264,12.72622 -11.76772,22.51624 -12.68288,22.8452 -1.63793,0.5888 -1.02272,-2.77651 1.41296,-7.72921 1.29466,-2.63259 2.97805,-6.84146 3.74085,-9.35307 0.76279,-2.5116 2.15742,-5.70818 3.09917,-7.10352 0.94174,-1.39534 4.15264,-7.56018 7.13534,-13.699656 5.84984,-12.041086 9.36387,-17.794375 11.65243,-19.077725 0.79592,-0.446334 1.44714,-1.537416 1.44714,-2.424627 0,-1.349542 -0.87048,-1.510049 -5.32764,-0.982352 -2.95563,0.349927 -5.82927,1.316488 -6.45431,2.17093 -0.61967,0.847096 -1.41534,1.540173 -1.76816,1.540173 -0.78562,0 -5.21629,3.720179 -8.28537,6.956761 -1.24658,1.314616 -3.3013,4.511203 -4.56603,7.103526 -1.26473,2.592322 -3.09384,5.626625 -4.06469,6.742893 -0.97084,1.116268 -2.06521,4.312855 -2.43195,7.103525 -1.07166,8.155072 -1.70524,10.655282 -2.7001,10.655282 -0.51379,0 -0.95407,-3.08242 -0.9784,-6.84982 -0.0244,-3.767408 -0.43403,-11.555346 -0.91044,-17.306532 -0.93388,-11.273504 0.16737,-19.100623 3.32083,-23.602814 3.70555,-5.290413 1.41245,-6.497971 -4.52535,-2.383072 -3.99254,2.766823 -7.76771,9.432167 -8.74168,15.434036 -0.41218,2.539947 -0.79078,3.067021 -1.40924,1.961898 -1.37307,-2.453553 1.79602,-11.111265 5.7641,-15.74707 2.78157,-3.249642 4.97948,-4.648586 9.25741,-5.892215 6.8952,-2.004485 9.10677,-0.799578 5.52682,3.011109 -1.86307,1.983147 -2.37385,3.920088 -2.74645,10.41503 -0.25178,4.388341 -0.65053,11.061226 -0.88614,14.828631 -0.47878,7.655686 0.39586,8.747983 2.43773,3.044367 2.35012,-6.564644 6.81474,-11.966087 13.44585,-16.267212 7.598,-4.928279 13.37114,-6.551618 21.63031,-6.082183 l 6.08297,0.345744 -3.27,1.32397 c -2.06235,0.835007 -4.69651,3.445897 -7.13257,7.069518 -5.0594,7.525833 -10.75144,18.417844 -10.01159,19.157692 0.32134,0.321344 2.53439,-1.196645 4.91788,-3.37331 7.07455,-6.460674 12.69196,-8.939366 18.33971,-8.092432 2.81566,0.422233 4.76749,1.245037 4.76749,2.009759 0,0.712157 -1.84014,3.229221 -4.08919,5.593478 -2.24907,2.364255 -6.20515,8.489265 -8.7913,13.611128 -9.78415,19.3775 -11.59453,23.23032 -11.1326,23.69225 0.26143,0.26144 2.23226,-0.0466 4.3796,-0.68467 4.61817,-1.37214 13.73699,-0.97907 14.26077,0.61471 0.202,0.61464 -1.62542,1.87856 -4.06092,2.80869 -2.43551,0.93013 -5.70932,3.02834 -7.27514,4.66271 -4.05058,4.22787 -11.98888,15.52024 -17.03236,24.22879 -7.91582,13.66817 -17.32309,25.93837 -28.25717,36.85675 -15.66382,15.64132 -26.74923,31.98801 -26.10275,38.49151 0.29644,2.9821 0.88165,3.4578 7.42531,6.03548 5.09106,2.00548 9.47539,4.84886 15.47555,10.03637 4.6046,3.98098 8.372,7.68114 8.372,8.22256 0,1.1798 -2.7472,1.18129 -5.6591,0.003 z m -167.92216,-4.85371 c -2.61777,-7.18431 -3.41638,-8.98626 -4.61075,-10.40345 -2.30009,-2.72919 -3.50282,-6.95249 -2.20789,-7.7528 0.6434,-0.39764 1.35461,-0.16861 1.58047,0.50896 0.22586,0.67757 1.57089,2.61082 2.98895,4.2961 l 2.57831,3.06414 2.88354,-2.7626 c 5.37893,-5.15335 19.24155,-12.61027 31.11822,-16.739 11.27666,-3.92014 26.76865,-7.24352 28.00456,-6.00762 0.56,0.55999 -0.0353,1.10866 -1.50267,1.38495 -1.33652,0.25167 -5.39636,1.003 -9.02186,1.66965 -12.14811,2.23377 -24.65683,7.83143 -36.88374,16.5055 -6.22769,4.41808 -11.94081,8.38182 -12.69582,8.8083 -1.92006,1.08458 -1.02916,4.53771 1.28571,4.98351 1.05558,0.20328 2.29272,-0.29774 2.74918,-1.1134 1.32484,-2.36737 17.14899,-12.42756 22.70759,-14.43634 2.79066,-1.00849 6.8432,-2.71927 9.00563,-3.80171 3.28897,-1.64636 20.71434,-6.79048 23.21392,-6.85296 0.4186,-0.0105 0.7611,0.38692 0.7611,0.88308 0,0.49615 -3.08243,1.68403 -6.84983,2.6397 -3.7674,0.95569 -10.80964,3.518 -15.64941,5.69403 -4.83978,2.17604 -9.24733,3.95643 -9.79455,3.95643 -1.22053,0 -18.21099,13.09422 -20.88623,16.09663 -2.88204,3.23449 -7.48835,2.90843 -8.77443,-0.6211 z m 92.81038,-1.42243 c -0.94624,-1.53104 2.69927,-4.24396 3.9808,-2.96244 1.2929,1.29289 0.0808,4.13118 -1.76435,4.13118 -0.82178,0 -1.81918,-0.52593 -2.21645,-1.16874 z m -92.24588,-19.1489 c 0.52187,-2.37605 0.20712,-3.46105 -1.39829,-4.82025 -2.00328,-1.69607 -4.09143,-7.33537 -2.71617,-7.33537 0.3723,0 2.39896,1.38388 4.50369,3.07528 l 3.82678,3.0753 9.05228,-4.43206 c 4.97875,-2.43764 12.93384,-5.71897 17.67798,-7.29184 4.74413,-1.57287 9.53902,-3.22406 10.65528,-3.66932 4.41381,-1.76058 10.3816,-2.92378 15.02804,-2.92916 6.24813,-0.007 5.37289,1.54847 -1.31692,2.34079 -9.38079,1.111 -29.87982,8.8861 -38.69934,14.67832 -6.27648,4.12205 -12.5839,8.79463 -12.89724,9.55437 -0.18604,0.45108 -1.2498,0.82016 -2.3639,0.82016 -1.72599,0 -1.92603,-0.4536 -1.35219,-3.06622 z m 103.01887,-5.68894 c -0.0316,-4.43935 2.40808,-6.32186 5.07042,-3.91247 2.09359,1.89466 2.70958,4.54932 1.05565,4.54932 -0.5252,0 -1.27553,-0.51878 -1.6674,-1.15284 -0.47154,-0.76298 -1.34209,-0.33401 -2.5743,1.26848 l -1.86181,2.42132 z m -97.9956,-12.00134 c -0.91479,-1.92781 -2.30619,-4.03867 -3.09197,-4.69081 -1.81108,-1.50306 -1.86561,-4.99637 -0.0781,-4.99637 0.74289,0 1.96169,1.14164 2.70846,2.53698 1.34866,2.51999 4.7131,3.37993 6.64686,1.69893 2.6021,-2.26199 15.12742,-6.79643 23.27958,-8.42771 11.03629,-2.20842 36.46575,-2.68221 35.79398,-0.6669 -0.28553,0.85662 -4.08509,1.2898 -12.51573,1.42686 -18.87508,0.30692 -31.15496,3.79343 -43.93978,12.47544 -3.36005,2.28176 -6.34114,4.14866 -6.62466,4.14866 -0.2835,0 -1.26393,-1.57729 -2.17873,-3.50508 z m 6.38831,-17.22382 c -2.09301,-2.39539 -3.80546,-5.36339 -3.80546,-6.59556 0,-2.09063 0.30278,-1.99221 4.53185,1.4732 l 4.53184,3.71352 2.82538,-1.90886 c 4.14095,-2.79769 11.89963,-5.15565 20.91131,-6.35521 15.94579,-2.12258 39.03394,-0.50268 36.00509,2.52616 -0.29615,0.29615 -4.40495,0.16733 -9.13069,-0.28629 -13.99653,-1.3435 -26.101,0.65553 -37.54655,6.20076 -13.29236,6.43999 -13.74581,6.47048 -18.32277,1.23228 z m 113.91008,-8.12421 c 0,-1.59661 0.73411,-2.70158 2.07829,-3.12821 2.51147,-0.79711 5.02525,1.06734 5.02525,3.72718 0,1.60632 -0.33937,1.7594 -1.96799,0.88779 -1.30873,-0.70041 -2.17866,-0.71237 -2.59686,-0.0358 -1.14497,1.85258 -2.53869,1.05597 -2.53869,-1.45106 z m -101.47892,-4.45272 c 0,-0.47917 -1.129,-1.38564 -2.50892,-2.01437 -2.52016,-1.14826 -5.60939,-6.91394 -5.60939,-10.46925 0,-2.96197 1.85569,-2.24214 2.21587,0.85956 0.23222,1.9997 1.4267,3.38348 4.31476,4.99857 l 3.99365,2.23334 4.07569,-2.07925 c 2.69939,-1.37713 6.83369,-2.24813 12.24298,-2.57932 8.97954,-0.54977 25.71042,1.1434 27.33316,2.76613 1.27385,1.27385 -1.40841,1.28871 -10.94118,0.0605 -8.44839,-1.08844 -16.59319,0.0598 -24.09313,3.39661 -6.43919,2.86487 -11.02349,4.04071 -11.02349,2.82744 z m 49.82374,-14.45418 c -8.12811,-2.88546 -19.0338,-3.93558 -30.32545,-2.92009 -5.42177,0.48759 -11.34834,1.32866 -13.17012,1.86902 -3.1798,0.94318 -3.37352,0.83607 -4.84137,-2.677 -1.20479,-2.88348 -1.29268,-4.37564 -0.41442,-7.03677 1.60719,-4.86985 3.95581,-4.47601 3.28164,0.5503 -0.28974,2.16017 -0.12694,4.17472 0.3618,4.47677 0.48873,0.30205 4.9933,0.0663 10.01016,-0.52398 6.84996,-0.80592 11.39605,-0.75536 18.25467,0.20297 8.61852,1.20425 21.16896,5.26737 22.3943,7.25001 0.30703,0.4968 0.41713,0.8699 0.24465,0.82912 -0.17246,-0.0407 -2.78061,-0.94994 -5.79586,-2.02035 z m 13.0932,-2.90995 c -4.66135,-3.34211 -11.60741,-6.82221 -18.26621,-9.15174 -5.95523,-2.08338 -7.74738,-2.2449 -18.44498,-1.66231 -7.06086,0.38453 -12.08735,0.2594 -12.43905,-0.30966 -0.32461,-0.52523 -0.83285,-2.93361 -1.12943,-5.35196 -0.41792,-3.40773 -0.0893,-4.9644 1.46065,-6.91883 2.40482,-3.03239 4.02266,-2.01316 2.2026,1.38763 -0.71071,1.328 -1.02076,3.26973 -0.68901,4.315 0.52908,1.66699 1.69541,1.9004 9.49356,1.8998 10.66359,-7.9e-4 15.43774,1.4873 29.94502,9.3338 11.99572,6.48809 11.22712,5.96896 10.76323,7.26957 -0.19837,0.55618 -1.4961,0.19268 -2.89638,-0.8113 z m 63.28391,-2.60649 c -0.33296,-0.86766 -1.84645,-1.52217 -3.51991,-1.52217 -3.36596,0 -3.71067,-1.01377 -1.13674,-3.34314 2.27908,-2.06254 4.06183,-0.98967 5.25217,3.16079 0.93317,3.25378 0.48797,4.52807 -0.59552,1.70452 z m 14.85487,-6.37032 c 0,-0.43395 0.72908,-1.8299 1.62016,-3.10211 1.91693,-2.73679 5.79302,-2.61833 6.32925,0.19343 0.5449,2.85721 -1.42106,4.30949 -3.50488,2.58914 -1.33989,-1.10619 -1.82654,-1.14227 -2.15716,-0.15995 -0.46422,1.37927 -2.28737,1.76145 -2.28737,0.47949 z m -87.77928,-10.22767 c -9.0754,-4.68279 -9.19715,-4.71258 -19.26931,-4.71258 h -10.13622 l -0.0663,-4.05915 c -0.0815,-4.98982 1.5964,-9.52112 4.47568,-12.08669 3.34831,-2.98351 3.79056,-1.08521 0.69323,2.97562 -1.52241,1.99598 -2.53661,4.23204 -2.25379,4.96906 0.30691,0.7998 2.78364,1.5282 6.14387,1.80685 5.65228,0.46874 10.92369,2.76146 24.72572,10.75408 3.48834,2.02008 6.34243,4.03463 6.34243,4.4768 0,1.25574 -0.91712,0.90078 -10.65529,-4.12399 z m 10.65529,-8.3191 c -4.91714,-4.21493 -13.0645,-9.52974 -16.93763,-11.04902 -1.7809,-0.69858 -5.54781,-1.3401 -8.37092,-1.42561 -4.91659,-0.14892 -6.27016,-0.85639 -4.14792,-2.168 0.54297,-0.33558 1.45783,-2.35786 2.03303,-4.49396 1.52645,-5.66885 4.66937,-9.22275 8.15621,-9.22275 3.28725,0 4.8371,-1.64378 3.14514,-3.33574 -1.48876,-1.48876 -1.44073,-5.08006 0.0884,-6.60919 1.92948,-1.929485 3.01921,-1.416534 1.80611,0.850162 -1.73037,3.233208 -0.26771,5.798298 5.42154,9.507858 6.5678,4.28242 10.40342,7.79663 15.76301,14.44219 6.47897,8.03352 4.98867,8.55897 -2.83978,1.00124 -4.98119,-4.80895 -9.27293,-7.83098 -14.64794,-10.31439 -4.18135,-1.93189 -8.26146,-3.51255 -9.0669,-3.51255 -2.08588,0 -3.37444,1.9629 -4.16359,6.34244 l -0.68569,3.80545 3.85144,0.0183 c 5.22029,0.0249 18.26595,7.67614 23.05697,13.52295 1.99498,2.43461 3.62723,4.72201 3.62723,5.08314 0,1.51269 -2.77162,0.40083 -6.08873,-2.44256 z m 12.7135,-17.10644 c -0.59002,-1.85899 -5.16731,-6.56669 -14.54236,-14.9567 -6.47737,-5.796784 -7.45469,-12.132308 -2.78287,-18.040084 2.42198,-3.062742 2.91756,-1.182068 0.66469,2.522478 -2.4815,4.080504 -1.96054,5.315254 5.54097,13.132666 6.44581,6.71726 13.62791,16.19572 13.62791,17.9852 0,1.99881 -1.8177,1.53245 -2.50834,-0.64356 z m 2.43774,-12.01399 c -1.90247,-2.65113 -5.68645,-7.28142 -8.40886,-10.28951 -4.67556,-5.166192 -4.91703,-5.708623 -4.3578,-9.788749 0.76652,-5.592431 3.24062,-10.658348 6.32439,-12.949766 3.69417,-2.744989 3.20546,0.310562 -0.59065,3.692922 -4.18749,3.731068 -4.24602,9.495565 -0.14956,14.728326 5.19069,6.630467 12.32702,17.255957 12.32702,18.354017 0,2.22557 -1.79851,0.91555 -5.14454,-3.74724 z m 8.84687,-8.261007 c -2.02931,-3.287754 -4.31894,-6.219213 -5.08806,-6.514352 -3.60368,-1.382861 -8.27119,-18.966382 -5.0346,-18.966382 0.66287,0 1.35138,1.027473 1.52999,2.283276 0.20565,1.445784 0.97597,2.231578 2.10016,2.142333 1.34228,-0.106559 1.77702,0.636134 1.78208,3.044367 0.004,1.751921 0.94077,4.555278 2.08241,6.229679 3.18674,4.673802 8.0588,14.472396 8.0588,16.207686 0,2.95615 -1.75868,1.52265 -5.43078,-4.426607 z m 10.84216,-1.901209 c -5.93001,-8.020772 -10.11117,-21.866557 -8.40247,-27.824494 1.43832,-5.015108 -1.68857,-3.335599 -4.59691,2.469088 -1.92039,3.832862 -2.49214,4.473482 -2.03779,2.283276 0.95792,-4.617835 5.41292,-11.643554 8.18365,-12.905982 3.22002,-1.467141 3.64804,-0.879162 2.42598,3.332694 -1.08043,3.723712 -0.41671,9.065893 1.12637,9.065893 0.51379,0 0.9367,-1.255802 0.93981,-2.790671 0.0134,-6.650887 1.90377,-10.124496 7.54858,-13.8713 3.01102,-1.998598 5.77254,-3.633815 6.13672,-3.633815 0.36418,0 0.35441,2.462972 -0.0217,5.47327 -0.46128,3.691988 -0.18733,7.242331 0.84177,10.908985 2.73616,9.748909 4.99341,24.391806 3.9248,25.460413 -2.50553,2.505534 -9.16804,-19.443064 -9.25852,-30.500698 -0.037,-4.519724 -0.32527,-5.34792 -1.76513,-5.070628 -2.96146,0.570324 -5.34678,6.181162 -6.00155,14.117039 -0.54141,6.562066 -0.27144,8.486359 2.12264,15.129244 1.50864,4.186006 2.81495,8.246753 2.90291,9.023883 0.29195,2.578819 -1.94019,2.213379 -4.06915,-0.666197 z m 34.81433,-3.987854 c -0.35691,-0.356916 -0.64893,-1.899051 -0.64893,-3.426967 0,-1.527918 -1.13846,-6.132523 -2.52989,-10.232459 -1.39146,-4.099936 -2.52622,-9.509378 -2.52171,-12.020981 0.008,-4.32548 1.82948,-11.323197 3.34133,-12.835051 1.16891,-1.168908 0.77668,-2.386788 -0.7687,-2.386788 -2.30917,0 -8.62384,4.080694 -9.84468,6.361882 -0.6097,1.139221 -1.69272,5.53954 -2.40672,9.778488 l -1.29818,7.707178 -0.0467,-6.596131 c -0.0564,-7.962862 1.51153,-12.872062 4.91264,-15.381133 2.81809,-2.078968 12.81653,-5.96691 13.52439,-5.259036 0.24845,0.248443 -0.12568,2.370289 -0.83141,4.715216 -1.3214,4.390748 -1.16152,10.889358 0.52915,21.506295 1.78311,11.197452 1.05427,20.534275 -1.41052,18.069487 z m 385.14012,344.89134 c 0.18604,-0.46261 6.0445,-9.22059 13.01878,-19.46215 8.20733,-12.05226 12.56751,-19.36258 12.36014,-20.72315 -0.70468,-4.62342 -15.53109,-82.39066 -16.02352,-84.04634 -0.46936,-1.57808 0.30208,-1.77589 6.92598,-1.77589 h 7.45416 l 6.50965,35.01023 c 3.58031,19.25564 6.76404,34.99571 7.07497,34.97794 0.31092,-0.0177 10.59011,-15.77235 22.84265,-35.01023 l 22.27735,-34.97794 h 7.42986 7.42985 l -3.83007,5.95467 c -2.10655,3.27505 -20.72632,31.80479 -41.37728,63.39941 l -37.5472,57.44475 -7.4418,0.025 c -4.09298,0.0137 -7.28957,-0.3536 -7.10352,-0.81623 z m -77.29312,-31.54755 c -16.0958,-3.33779 -23.50005,-20.52257 -16.17694,-37.54561 6.06559,-14.09984 22.20127,-20.99337 54.52146,-23.29282 6.29893,-0.44815 11.90549,-1.26769 12.459,-1.82122 0.55353,-0.55352 1.07485,-3.60779 1.1585,-6.78725 0.18422,-7.00174 -1.79596,-10.22807 -8.38549,-13.66256 -4.07024,-2.12145 -5.54,-2.30924 -15.16243,-1.93738 -7.91905,0.30602 -12.72887,1.09419 -18.73007,3.0692 -4.44113,1.46158 -8.23641,2.49581 -8.43393,2.29828 -0.19754,-0.19753 0.21825,-3.15474 0.92399,-6.57157 1.23101,-5.95997 1.43747,-6.25396 5.08067,-7.23498 8.74091,-2.35369 16.15955,-3.31666 25.72589,-3.33938 21.93753,-0.0521 32.93056,7.48161 33.01023,22.62242 0.0177,3.35921 -2.94197,18.98807 -7.35722,38.85092 l -7.38679,33.23089 -6.93047,0.003 -6.93045,0.003 0.66378,-3.29807 c 0.36508,-1.81394 0.88879,-4.09721 1.16381,-5.07395 0.275,-0.97673 0.25711,-1.77588 -0.0397,-1.77588 -0.29688,0 -4.01518,2.10995 -8.26286,4.68879 -4.24768,2.57884 -9.62958,5.25703 -11.95977,5.95155 -5.85663,1.74561 -14.70311,2.50261 -18.95115,1.62171 z m 30.66122,-17.14656 c 4.62449,-2.33055 9.1385,-4.81073 10.03112,-5.51151 0.9354,-0.73436 2.92469,-6.64808 4.69562,-13.95896 l 3.07267,-12.68482 -3.68083,-0.33323 c -4.89738,-0.4434 -21.45177,1.54628 -29.05055,3.49157 -13.10287,3.35433 -20.01495,10.19839 -20.13481,19.93661 -0.12676,10.29838 5.15319,14.23499 18.32276,13.66101 7.38399,-0.32182 9.29595,-0.84716 16.74402,-4.60067 z m 177.32046,17.04507 c -13.48863,-2.09349 -24.91025,-9.42928 -29.82364,-19.15489 -4.79936,-9.49989 -5.71544,-22.89655 -2.48894,-36.39787 3.54317,-14.82639 15.42587,-30.61055 27.53051,-36.56965 15.33658,-7.55018 35.03598,-6.16121 45.17567,3.18522 8.50485,7.83952 11.51302,18.63003 9.38091,33.65012 l -1.22414,8.62369 h -34.52527 -34.52527 l 0.45944,8.37201 c 0.54798,9.98549 2.81461,15.08106 9.10254,20.46331 5.47368,4.68526 12.23659,6.6823 22.62937,6.6823 9.29971,0 17.50469,-1.83823 24.87468,-5.57289 2.76274,-1.39998 5.21632,-2.54543 5.45243,-2.54543 0.2361,0 -0.34593,3.08243 -1.29342,6.84984 -1.99377,7.92762 -2.6412,8.41474 -14.29022,10.75177 -10.53131,2.11279 -19.78396,2.69469 -26.43465,1.66247 z m 37.19867,-60.435 c 0.88546,-3.52796 -0.22769,-10.9802 -2.28895,-15.32399 -0.92882,-1.95733 -3.52481,-4.77382 -5.76889,-6.25888 -3.73981,-2.47489 -4.93282,-2.70011 -14.30215,-2.70011 -9.43545,0 -10.64044,0.23176 -15.66005,3.01204 -7.86122,4.35418 -13.86663,12.06351 -16.82332,21.5966 l -0.70816,2.28327 h 27.44837 27.44834 z m 44.57825,60.33751 c -9.37693,-1.36601 -22.67639,-6.24406 -24.33338,-8.92514 -0.32301,-0.52263 0.16854,-4.38994 1.0923,-8.59399 l 1.6796,-7.64377 4.16648,3.57129 c 2.29156,1.96421 7.13475,5.00548 10.76261,6.75839 5.76844,2.78716 7.86951,3.233 16.74402,3.55307 9.05079,0.3264 10.63517,0.11187 14.65503,-1.98435 5.37815,-2.80452 8.01583,-6.14763 8.83546,-11.19844 1.48853,-9.17274 -2.57634,-12.76049 -20.03862,-17.68656 -14.56923,-4.10995 -18.81255,-6.12468 -23.03994,-10.93942 -7.76888,-8.84826 -6.10588,-23.08904 3.86007,-33.05499 12.51998,-12.51999 36.79929,-14.27529 56.74039,-4.10211 3.99923,2.04028 4.23898,2.39938 3.62338,5.42736 -1.26335,6.21415 -2.60393,10.85345 -3.13624,10.85345 -0.29479,0 -2.00891,-1.12346 -3.80915,-2.49657 -6.68445,-5.09848 -14.84224,-8.00996 -23.76146,-8.48036 -10.1497,-0.5353 -15.89442,1.29142 -20.47776,6.51156 -2.51613,2.86572 -3.09165,4.41712 -3.09165,8.33404 0,8.52135 3.35794,11.0496 21.81797,16.42711 13.48098,3.9271 17.50176,5.89444 21.61029,10.57382 3.66106,4.16971 4.75782,8.73068 3.95948,16.46579 -1.40688,13.63147 -13.58063,24.22633 -30.6752,26.69678 -7.99996,1.15614 -8.80942,1.15298 -17.18368,-0.067 z M 480.9656,403.0735 c 0.30343,-1.2806 6.50147,-28.12938 13.7734,-59.66396 7.27194,-31.53457 13.46141,-58.13473 13.75439,-59.11148 0.44073,-1.46931 1.74716,-1.77587 7.56784,-1.77587 3.86933,0 7.03514,0.37587 7.03514,0.83528 0,0.89017 -9.88417,44.10791 -10.77844,47.12786 -0.49983,1.68795 1.31395,1.77493 31.74183,1.52219 l 32.27194,-0.26805 5.61958,-24.35495 5.61956,-24.35494 7.42258,-0.29983 c 6.73482,-0.27205 7.37356,-0.13101 6.89364,1.52219 -0.29092,1.00209 -6.52285,27.85135 -13.84874,59.665 -7.3259,31.81365 -13.54919,58.64213 -13.82954,59.61887 -0.42237,1.47153 -1.71543,1.77588 -7.54486,1.77588 -3.86932,0 -7.03514,-0.41748 -7.03514,-0.92773 0,-0.51025 2.96827,-13.68871 6.59613,-29.28548 3.62787,-15.59677 6.59613,-28.87895 6.59613,-29.51596 0,-0.84309 -8.65744,-1.15819 -31.82315,-1.15819 h -31.82314 l -2.67776,11.41638 c -1.47277,6.27901 -4.63178,19.86451 -7.02004,30.18998 l -4.3423,18.77361 -7.36037,0.29877 c -7.22083,0.29311 -7.3499,0.25464 -6.80868,-2.02957 z m 46.00744,-208.90914 c -16.55776,-2.24436 -29.11628,-10.64263 -35.72082,-23.88759 -4.31035,-8.64412 -5.1439,-13.25789 -5.0216,-27.7955 0.13956,-16.59038 2.18762,-25.49874 9.08139,-39.50083 3.79887,-7.715966 6.30147,-11.173118 12.94861,-17.887539 12.87674,-13.007079 25.04994,-18.069715 43.24985,-17.986914 11.51628,0.0524 20.8947,2.112047 30.76745,6.757024 11.5462,5.432318 11.15608,4.836448 9.16416,13.997159 l -1.69352,7.788451 -5.61684,-4.575449 C 572.54161,81.631931 561.59513,77.978765 547.16468,78.73617 c -11.86155,0.622572 -19.49813,4.374345 -28.31475,13.910733 -12.10843,13.096937 -17.34674,27.949587 -17.39689,49.326967 -0.0264,11.26227 0.29783,14.03143 2.21638,18.92839 3.56339,9.09523 8.26934,14.44279 16.10422,18.29989 6.53652,3.21792 7.33715,3.36329 18.52323,3.36329 10.34139,0 12.60007,-0.33432 19.56053,-2.89527 4.32802,-1.5924 10.60703,-4.66486 13.95336,-6.8277 3.34632,-2.16284 6.06506,-3.59989 6.04161,-3.19347 -0.0234,0.40643 -0.86505,4.1528 -1.87025,8.32525 l -1.82765,7.58628 -5.69319,2.28864 c -13.8891,5.58337 -29.43243,7.94931 -41.48824,6.31519 z m 92.17363,0.0665 c -11.80163,-2.08825 -21.08236,-9.50564 -25.00222,-19.98239 -7.48477,-20.00483 0.85951,-51.31646 17.55113,-65.86007 9.74091,-8.487369 23.80953,-12.552372 36.58338,-10.570442 17.63122,2.735572 27.74807,14.455912 28.81251,33.379182 1.53738,27.33091 -13.36337,53.6195 -34.58703,61.02005 -6.51193,2.27068 -16.86243,3.16299 -23.35777,2.01367 z m 21.15786,-13.54894 c 6.91293,-3.23042 12.25364,-8.92097 16.36144,-17.4332 6.89554,-14.28899 8.42369,-33.27835 3.49703,-43.45545 -3.51543,-7.26192 -8.58265,-10.20195 -18.34917,-10.64626 -9.98334,-0.45418 -16.23337,2.04277 -22.86836,9.13611 -8.47958,9.06536 -12.99639,22.34328 -13.08839,38.47554 -0.0505,8.85116 0.21413,10.23674 2.98898,15.65111 4.07693,7.95499 8.96178,10.66722 19.1869,10.65313 5.40372,-0.007 8.46224,-0.60087 12.27157,-2.38098 z m 290.687,13.53666 c -13.48863,-2.0935 -24.91025,-9.42928 -29.82365,-19.1549 -4.79935,-9.49989 -5.71544,-22.89655 -2.48893,-36.39788 3.54317,-14.82638 15.42586,-30.61054 27.53051,-36.56964 15.33657,-7.550168 35.03597,-6.16121 45.17567,3.18523 8.50486,7.83951 11.51301,18.63001 9.3809,33.65012 l -1.22412,8.62368 h -34.52529 -34.52527 l 0.45944,8.37201 c 0.54798,9.9855 2.81462,15.08106 9.10254,20.46332 5.47368,4.68524 12.2366,6.68229 22.62937,6.68229 9.29972,0 17.50469,-1.83823 24.87469,-5.57288 2.76273,-1.39999 5.21632,-2.54543 5.45242,-2.54543 0.23612,0 -0.34593,3.08242 -1.29341,6.84983 -1.99376,7.92762 -2.6412,8.41476 -14.29023,10.75178 -10.53129,2.11279 -19.78394,2.69469 -26.43464,1.66247 z m 37.19868,-60.43501 c 0.88544,-3.52794 -0.2277,-10.9802 -2.28897,-15.32398 -0.9288,-1.95734 -3.52481,-4.77383 -5.76888,-6.25888 -3.73981,-2.47489 -4.93281,-2.70011 -14.30215,-2.70011 -9.43546,0 -10.64045,0.23176 -15.66006,3.01203 -7.86121,4.35418 -13.86662,12.06352 -16.82332,21.59659 l -0.70815,2.28329 h 27.44835 27.44837 z m -280.50506,56.18835 c 0.2466,-1.28291 4.98479,-22.08052 10.5293,-46.21694 l 10.08096,-43.884375 6.95983,-0.0053 6.95985,-0.0053 -0.66646,2.655355 c -0.36654,1.46045 -0.93663,4.00626 -1.26685,5.65735 l -0.6004,3.00198 6.97757,-4.27075 c 19.75514,-12.091465 36.09569,-12.674006 45.79035,-1.63242 3.83858,4.37191 5.83572,12.1853 4.92713,19.27636 -0.68794,5.36894 -14.51709,66.70871 -15.19167,67.3833 -0.20507,0.20506 -3.30437,0.23659 -6.88732,0.07 l -6.51448,-0.30279 6.37718,-27.39931 c 7.16838,-30.79873 8.67976,-42.83538 6.02353,-47.97197 -2.55471,-4.94025 -6.69467,-6.59338 -15.40977,-6.15329 -6.41628,0.32402 -8.64489,1.0129 -17.05662,5.27245 -5.3218,2.69487 -10.19917,5.53013 -10.83859,6.3006 -0.63943,0.77047 -4.69199,16.82475 -9.0057,35.67618 l -7.84311,34.27534 -6.89655,0.30298 c -6.71559,0.29502 -6.88478,0.24177 -6.44818,-2.02958 z m 103.5085,0 c 0.2466,-1.28291 4.98479,-22.08052 10.52932,-46.21694 l 10.08095,-43.884375 6.95983,-0.0053 6.95984,-0.0053 -0.66645,2.655355 c -0.36655,1.46045 -0.93664,4.00626 -1.26685,5.65735 l -0.6004,3.00198 6.97757,-4.27075 c 19.75513,-12.091465 36.0957,-12.674006 45.79035,-1.63242 3.83857,4.37191 5.83573,12.1853 4.92712,19.27636 -0.68794,5.36894 -14.51708,66.70871 -15.19167,67.3833 -0.20507,0.20506 -3.30436,0.23659 -6.88732,0.07 l -6.51447,-0.30279 6.37717,-27.39931 c 7.16839,-30.79873 8.67975,-42.83538 6.02352,-47.97197 -2.5547,-4.94025 -6.69466,-6.59338 -15.40975,-6.15329 -6.41629,0.32402 -8.6449,1.0129 -17.05663,5.27245 -5.32179,2.69487 -10.19915,5.53013 -10.83858,6.3006 -0.63943,0.77047 -4.692,16.82475 -9.0057,35.67618 l -7.84311,34.27534 -6.89655,0.30298 c -6.71559,0.29502 -6.88478,0.24177 -6.44819,-2.02958 z m 199.9455,0.45812 c 0.25391,-0.97674 4.98789,-21.75338 10.51985,-46.17031 l 10.0584,-44.394438 6.8498,-0.0026 c 3.7674,-0.0014 6.8443,0.339888 6.8377,0.758488 -0.01,0.41861 -0.6747,3.25146 -1.4848,6.29525 -0.8099,3.04378 -1.361,5.64574 -1.2246,5.78214 0.1363,0.13639 5.2568,-2.2289 11.3789,-5.25621 11.9811,-5.92455 20.5586,-7.989911 28.603,-6.88728 5.0262,0.6889 4.9921,0.53097 2.2862,10.57989 l -1.0164,3.77457 -3.7779,-1.04313 c -2.0779,-0.57374 -7.4572,-0.85005 -11.954,-0.61402 -6.5181,0.34211 -9.6016,1.09629 -15.2074,3.71954 -13.7802,6.44856 -12.2669,3.42127 -20.8244,41.65635 l -7.5151,33.57763 h -6.99545 c -6.16166,0 -6.94042,-0.21167 -6.5338,-1.77589 z"
       id="path1" /></g></svg>
