<?xml version="1.0" encoding="UTF-8" standalone="no"?>
<!-- Created with Inkscape (http://www.inkscape.org/) -->

<svg
   width="1091.6727mm"
   height="482.98398mm"
   viewBox="0 0 1091.6728 482.98398"
   version="1.1"
   id="svg1"
   xml:space="preserve"
   xmlns="http://www.w3.org/2000/svg"
   xmlns:svg="http://www.w3.org/2000/svg"><defs
     id="defs1" /><g
     id="layer1"
     transform="translate(40.464316,12.070209)"><path
       style="fill:#000000;stroke-width:1.03242"
       d="m 186.61354,470.42824 c -11.55351,-0.8371 -30.38643,-3.64465 -38.19787,-5.69443 -3.11126,-0.81642 -8.20241,-2.11089 -11.31366,-2.87661 -9.86023,-2.42674 -18.36327,-5.49222 -36.98777,-13.33468 -4.786959,-2.01572 -9.190065,-3.66493 -9.784631,-3.66493 -0.594584,0 -3.389036,-1.5322 -6.209906,-3.40487 -2.820862,-1.8727 -7.211594,-4.47075 -9.757168,-5.77347 -6.755291,-3.45708 -21.250175,-14.1443 -27.769928,-20.47506 -3.11126,-3.02106 -7.580992,-7.09361 -9.932734,-9.05011 C 28.249662,399.15735 16.426372,386.126 9.2531319,375.94702 5.1161393,370.07655 -5.5483837,353.72068 -6.1712024,352.29117 c -0.3696918,-0.84853 -2.085563,-3.85695 -3.8130473,-6.68536 -7.1130783,-11.64627 -11.7569273,-23.09067 -21.4933153,-52.96856 -5.497302,-16.86949 -7.2926,-25.09674 -7.743049,-35.48382 -0.171719,-3.95977 -0.623084,-14.48872 -1.003033,-23.39764 -0.413559,-9.69703 -0.285691,-17.74644 0.318602,-20.05606 2.467088,-9.42928 3.25366,-13.48142 3.643796,-18.7715 0.532268,-7.21728 2.131077,-15.31562 4.568723,-23.1416 1.057196,-3.3941 2.204631,-7.70396 2.549852,-9.57747 1.357887,-7.36918 9.452212,-28.21107 16.651997,-42.87684 C -4.6268506,103.3139 1.4409992,93.153131 8.3925763,84.362776 10.629342,81.534357 14.188352,76.674619 16.301488,73.563358 20.630072,67.190201 29.466592,57.616176 39.392997,48.544607 c 3.676943,-3.360295 8.999512,-8.318881 11.827932,-11.019082 2.828418,-2.700199 7.688156,-6.643751 10.799414,-8.763447 3.111259,-2.119698 7.313962,-5.330901 9.339326,-7.136008 3.781493,-3.370242 20.240869,-11.8369787 26.658739,-13.7132913 1.97988,-0.5788378 7.302452,-2.4954395 11.827932,-4.2591145 10.36115,-4.03797387 36.94993,-11.2189756 45.76895,-12.3611145 14.42741,-1.8684757 28.80877,-3.0585527 40.11212,-3.3193287 13.70025,-0.316075 35.81619,1.154005 36.60685,2.4333138 0.29761,0.4815535 2.94367,0.8957087 5.88012,0.9203449 11.72723,0.098388 42.2476,9.04011146 56.25054,16.4800338 1.9799,1.0519406 8.92238,4.4776225 15.42774,7.6126275 17.86461,8.60915 28.99033,15.922059 46.6498,30.662842 2.18154,1.820968 4.81347,3.774256 5.84874,4.340638 1.61378,0.882872 3.97593,3.400428 14.35499,15.299307 0.84852,0.972776 2.2743,2.556423 3.1684,3.519213 1.98226,2.134571 14.27153,18.110764 16.27313,21.155255 0.79338,1.206761 2.76041,4.121098 4.37118,6.476308 1.61079,2.35521 2.9287,4.597926 2.9287,4.983806 0,0.38589 0.98349,2.0828 2.18555,3.77093 3.5041,4.92105 13.6688,25.36587 17.31616,34.82887 1.84483,4.78641 4.42848,11.47955 5.74145,14.87367 3.31714,8.57493 5.17476,15.64392 7.56779,28.79843 3.20547,17.62046 4.43896,27.2543 3.81028,29.75913 -0.31738,1.26459 -0.13184,3.8517 0.41236,5.74914 1.38777,4.83885 -0.64492,30.06639 -3.97585,49.3443 -0.98129,5.6792 -5.39503,22.49395 -9.17925,34.96953 -1.11533,3.67695 -3.93476,11.08227 -6.26539,16.45626 -2.33064,5.37401 -4.23862,10.07416 -4.23996,10.44481 -0.001,0.37067 -2.08517,4.05205 -4.63075,8.18083 -2.54559,4.12881 -4.62832,7.92121 -4.62832,8.42756 0,1.26028 -10.84075,19.74161 -14.79194,25.2173 -8.52462,11.81374 -15.6146,20.09941 -25.41388,29.69978 -15.15782,14.85019 -25.72315,23.05554 -48.57793,37.72711 -11.73058,7.53043 -41.43577,19.66981 -58.29403,23.82255 -5.93967,1.46313 -12.88215,3.2978 -15.42774,4.07704 -7.56828,2.31673 -40.89726,3.69823 -58.48261,2.42409 z m 54.6794,-7.03667 c 14.21329,-1.44577 24.68862,-3.60818 29.21556,-6.03095 1.2223,-0.65414 2.99278,-1.18935 3.93444,-1.18935 0.94165,0 3.28622,-0.69426 5.21019,-1.54276 8.77095,-3.86827 10.45556,-4.51563 14.64965,-5.62959 4.57585,-1.21534 16.87633,-7.38499 19.78493,-9.92369 0.89308,-0.77949 1.87836,-1.41724 2.18954,-1.41724 0.93567,0 12.33008,-7.04131 14.62338,-9.03667 1.1735,-1.02105 3.52201,-2.52964 5.21892,-3.35239 4.07799,-1.97724 35.35106,-33.35692 43.19792,-43.34519 3.3941,-4.32036 7.53831,-10.09383 9.20933,-12.82991 8.32578,-13.63246 14.84065,-25.12284 17.39944,-30.68763 1.56067,-3.39411 3.73366,-8.02243 4.82889,-10.28516 5.17156,-10.68462 11.28302,-30.06514 15.24359,-48.34024 1.69699,-7.83034 5.232,-42.20022 5.23634,-50.91155 0.005,-9.82868 -2.08888,-25.9178 -6.09006,-46.79747 -5.02375,-26.21578 -6.36522,-30.50112 -15.45423,-49.36876 -2.18003,-4.52548 -5.00572,-10.77371 -6.27931,-13.88497 -1.27358,-3.11126 -3.31172,-7.04533 -4.52919,-8.74238 -1.21747,-1.69705 -3.97684,-6.01807 -6.13195,-9.60225 C 386.17127,89.531725 371.95978,72.836151 356.69013,58.110149 342.47276,44.398968 336.88026,39.385181 331.82076,35.814308 c -3.04377,-2.148215 -7.73459,-5.573434 -10.42405,-7.6116 -2.68946,-2.038167 -7.6509,-5.104434 -11.02541,-6.813928 C 287.57332,9.8395558 280.38695,6.4784547 270.80906,2.8853285 260.5404,-0.9669405 255.3449,-2.2200371 232.75397,-6.2931481 214.18001,-9.6420057 162.499,-8.668389 149.4442,-4.723678 c -1.9799,0.5982555 -9.58676,2.5321201 -16.90416,4.29747701 -7.3174,1.76535569 -17.03686,4.58416359 -21.59883,6.26401659 -4.56195,1.679852 -10.17557,3.6723405 -12.47467,4.4277514 -10.077541,3.311162 -25.629866,13.675606 -44.855605,29.892855 -4.708605,3.971793 -9.58355,7.905866 -10.833209,8.742384 -3.550162,2.376472 -27.982068,30.652358 -28.137393,32.564376 -0.03755,0.462309 -1.647337,2.923304 -3.577291,5.46888 -1.9299553,2.545578 -4.2009885,6.159377 -5.0467427,8.030662 -0.8457531,1.871285 -2.4241979,4.648279 -3.5076555,6.171096 -1.0834567,1.52281 -4.7945028,8.21438 -8.2467672,14.87014 -10.7847216,20.79231 -20.4146866,52.28725 -22.8148116,74.61618 -0.589,5.4796 -1.485013,11.84383 -1.991138,14.14269 -1.505857,6.83973 -0.416092,47.95302 1.552207,58.5597 0.944775,5.09116 2.094203,11.33939 2.554283,13.88498 3.479248,19.25029 17.7978635,54.47483 29.5753972,72.757 2.9698391,4.61006 5.3997082,8.63495 5.3997082,8.94422 0,1.19851 18.1250806,23.07912 25.0751476,30.27074 9.576011,9.90881 28.101592,25.83674 36.589226,31.45868 7.091307,4.69707 11.125248,7.01976 23.702447,13.64753 4.242623,2.23571 11.879357,6.30343 16.970507,9.03936 5.09116,2.73593 11.10796,5.33132 13.3707,5.76753 8.74952,1.68675 12.4246,2.6468 14.58874,3.81106 1.23561,0.66473 3.68175,1.2086 5.43589,1.2086 1.75415,0 4.21445,0.65042 5.46732,1.44537 5.11755,3.24706 31.75127,9.12673 37.80993,8.34693 2.00636,-0.25824 5.00412,-0.10684 6.66166,0.33646 4.04317,1.08131 33.28112,0.5526 47.08385,-0.85142 z m -75.77276,-69.18839 c -1.51547,-5.65494 0.80166,-24.50534 5.16862,-42.04802 2.69553,-10.82837 2.70529,-11.00268 0.9965,-17.80543 -2.73429,-10.88524 -8.69075,-18.34094 -10.3859,-13 -0.61611,1.94121 -6.00077,4.56904 -7.10326,3.46655 -1.04398,-1.04398 1.5194,-4.49814 4.05296,-5.4614 3.61225,-1.37336 3.10001,-3.31694 -1.6334,-6.1977 -2.27818,-1.38649 -6.51622,-4.00736 -9.41784,-5.82414 -7.07203,-4.42794 -14.27394,-5.86481 -29.63766,-5.91304 -17.054,-0.0536 -20.356972,0.99085 -28.984825,9.16499 -8.047798,7.62458 -14.245279,17.88905 -11.670903,19.32975 0.86467,0.48389 1.572133,1.78247 1.572133,2.88572 0,2.23436 -1.072643,2.57892 -2.763763,0.8878 -1.612097,-1.61211 -2.706242,0.55969 -1.733839,3.4415 1.140582,3.38024 0.485926,5.99902 -2.023672,8.09518 -1.221616,1.02035 -2.507677,1.87061 -2.857928,1.88942 -2.296848,0.12343 -1.211158,-17.44272 1.234288,-19.97041 0.519915,-0.5374 0.945301,-1.80082 0.945301,-2.80761 0,-3.85997 3.38802,-10.26618 5.943212,-11.23767 3.651531,-1.38831 3.673945,-0.79717 0.132671,3.49902 -1.718135,2.08439 -2.865078,4.20859 -2.548766,4.72039 0.316322,0.51182 -0.108662,1.19296 -0.944392,1.51367 -0.835742,0.32071 -1.264371,1.24806 -0.952497,2.06076 0.311873,0.81273 0.06514,1.78791 -0.548369,2.16704 -0.613482,0.37916 -0.849132,1.12022 -0.523682,1.64681 0.884967,1.43189 2.527366,1.15421 2.527366,-0.4273 0,-4.58092 11.222392,-17.98307 22.05872,-26.34323 l 5.554045,-4.2849 13.35788,-1.00126 c 8.87923,-0.66555 15.52357,-0.65246 19.81724,0.0391 3.55266,0.57212 6.7004,0.79921 6.99496,0.50465 0.29458,-0.29458 -0.0976,-1.5559 -0.87169,-2.80297 -0.77403,-1.24706 -1.91359,-3.09146 -2.53238,-4.09867 -0.8655,-1.40882 -0.76914,-2.06346 0.41773,-2.83772 2.931,-1.91208 6.28388,-0.65962 7.7742,2.90406 1.29049,3.08578 1.2304,3.55976 -0.69526,5.48542 -1.15929,1.15927 -1.95351,2.22027 -1.76496,2.35772 0.18857,0.13747 2.04183,1.27109 4.11835,2.51914 4.44322,2.6705 5.76049,1.57756 3.46011,-2.87088 -1.47726,-2.85672 -1.45542,-3.1488 0.30595,-4.09146 2.88751,-1.54535 6.03595,-0.23202 7.41288,3.09219 1.34576,3.24896 0.0727,6.07223 -2.73818,6.07223 -2.31094,0 -1.62379,1.76961 1.57035,4.04403 4.17485,2.97276 5.07035,2.68779 5.43597,-1.72987 0.27671,-3.34326 0.66167,-3.85693 2.89052,-3.85693 2.04034,0 2.63847,0.58392 2.89668,2.82792 0.25786,2.24101 -0.2224,3.0362 -2.31417,3.83147 -3.46954,1.31913 -3.34419,2.03829 1.08986,6.25242 2.05117,1.94945 4.61841,5.51148 5.70496,7.91563 2.2801,5.04501 4.29602,5.57558 5.86176,1.54278 1.21777,-3.13658 4.16335,-8.19286 9.73658,-16.71338 7.60584,-11.6281 21.89383,-23.45382 38.38252,-31.76802 4.61396,-2.32652 8.65201,-4.23004 8.97345,-4.23004 1.49533,0 14.00664,-6.24605 14.00664,-6.99257 0,-0.46478 1.28936,-2.2057 2.86526,-3.86872 1.57588,-1.66304 3.7569,-4.41217 4.8467,-6.10922 2.79413,-4.35105 13.87589,-26.96693 15.57959,-31.79519 0.7812,-2.21391 1.79101,-4.52806 2.24399,-5.1426 1.24719,-1.69186 5.89772,-13.8801 7.29401,-19.11632 3.36071,-12.60291 4.13015,-16.27589 5.75818,-27.48702 2.74652,-18.91312 0.50199,-33.11806 -7.93485,-50.21733 -11.96048,-24.240866 -32.88945,-41.273371 -58.93705,-47.964407 -7.51677,-1.930886 -11.76981,-2.358316 -22.62734,-2.274049 -17.07236,0.132503 -24.31146,1.552937 -36.17996,7.099121 -18.98069,8.86972 -35.71607,25.682905 -45.55175,45.763515 -3.98513,8.13607 -4.3223,9.50201 -4.8726,19.74094 -0.74882,13.93177 1.06353,24.15524 7.42053,41.85944 2.47499,6.89282 14.19138,23.76493 16.50294,23.76493 0.36935,0 2.71535,1.37934 5.21331,3.06519 8.89886,6.00579 15.36997,8.27453 25.49901,8.93988 10.80226,0.70958 15.92241,-0.45652 20.51582,-4.67238 3.65949,-3.35872 6.82437,-10.43919 6.82437,-15.26755 0,-3.99805 -3.20947,-10.02191 -6.18925,-11.61664 -3.56642,-1.9087 -11.99403,-1.63628 -14.31333,0.46265 -2.65556,2.40325 -2.8108,0.6713 -0.19179,-2.13987 3.66224,-3.93096 7.79133,-4.93061 13.78711,-3.3379 4.78887,1.27212 5.6125,1.91684 7.67593,6.00862 1.89386,3.75554 2.22229,5.74405 1.81803,11.00706 -0.60914,7.93018 0.81391,9.20124 2.9846,2.6659 1.7114,-5.15254 1.40946,-7.5867 -1.81804,-14.65674 -0.90384,-1.9799 -2.12452,-5.52457 -2.71263,-7.87706 -1.21945,-4.87775 -6.96825,-10.6442 -10.5902,-10.62274 -1.2531,0.007 -6.67526,0.93252 -12.04926,2.05573 -10.31344,2.15559 -17.18702,1.94978 -21.30552,-0.63795 -1.25289,-0.7872 -2.96308,-1.43128 -3.80043,-1.43128 -1.51983,0 -10.89211,-10.68421 -10.89211,-12.41679 0,-0.50301 2.14514,-0.62053 4.76697,-0.26117 2.72464,0.37344 4.58326,0.25486 4.33818,-0.27682 -2.78794,-6.04817 -4.99109,-13.95637 -4.99109,-17.91546 0,-2.36817 1.85232,-2.744 2.69543,-0.5469 0.75576,1.96947 7.47004,5.89963 8.73905,5.11532 0.8989,-0.55555 0.65954,-2.18421 -0.9716,-6.61068 -0.31267,-0.84853 1.13935,0.25757 3.22671,2.45802 2.08734,2.20046 3.79517,4.6533 3.79517,5.45079 0,2.44505 3.0561,7.51892 4.5288,7.51892 0.76475,0 1.91207,0.62854 2.54964,1.39676 0.63756,0.76821 3.95539,1.68901 7.37294,2.04622 3.41757,0.35719 7.15427,1.1528 8.30377,1.76797 1.14948,0.61521 2.76426,0.8598 3.58835,0.54356 1.31105,-0.5031 1.30995,-0.93087 -0.009,-3.42187 -2.44711,-4.62217 -10.01516,-11.89312 -15.53793,-14.92794 -7.14049,-3.92379 -9.02347,-5.17392 -10.4046,-6.90768 -0.9458,-1.18731 -1.51205,-1.24332 -2.6896,-0.26605 -1.99382,1.65471 -2.84508,0.59432 -2.84508,-3.544 0,-3.44039 -2.32398,-4.89097 -3.4329,-2.14274 -0.28533,0.70711 -0.55532,0.23923 -0.59996,-1.03974 -0.0446,-1.27893 0.82922,-4.28735 1.94196,-6.68533 1.11274,-2.39801 2.61896,-6.21131 3.34714,-8.47405 1.63228,-5.07196 5.2265,-5.87495 5.75455,-1.28565 0.25704,2.23396 -0.0981,2.82842 -1.68986,2.82842 -2.7512,0 -3.54764,2.64765 -1.79863,5.97912 2.32787,4.43402 9.48124,10.83811 11.3186,10.13304 2.00066,-0.76771 2.08559,-3.76222 0.18063,-6.36743 -1.2301,-1.68222 -1.22523,-2.1153 0.034,-3.03614 0.80984,-0.59218 1.59027,-3.16404 1.73949,-5.73251 0.14886,-2.56216 0.98183,-5.67384 1.85105,-6.91482 1.57945,-2.25498 1.58197,-2.2539 4.25223,1.82459 1.46952,2.24451 2.23357,4.35178 1.69787,4.68286 -1.80539,1.11579 0.18459,2.51685 3.57481,2.51685 3.89141,0 5.63133,-2.41868 6.03195,-8.38503 0.13873,-2.06619 0.53435,-3.58327 0.87916,-3.37127 0.3448,0.21199 1.75234,-0.14569 3.12786,-0.79482 2.20415,-1.0402 2.52116,-1.90913 2.67118,-7.321941 0.0936,-3.377922 -0.34035,-7.095707 -0.96439,-8.261747 -0.62406,-1.166032 -1.18253,-3.065163 -1.24107,-4.220277 -0.17428,-3.438714 -3.9722,-2.634612 -5.76329,1.220211 -1.72201,3.706217 -3.08553,4.350558 -3.08553,1.458088 0,-2.885651 4.79407,-7.545256 7.36888,-7.162192 3.86168,0.574517 6.29716,5.158624 6.28263,11.825276 -0.0119,5.430812 0.30376,6.296244 3.40189,9.328822 1.87823,1.83848 3.84458,3.34267 4.36968,3.34267 0.52508,0 1.51598,1.35503 2.20198,3.0112 0.686,1.65616 2.13066,3.81063 3.21033,4.78773 1.07968,0.97709 1.96305,2.83457 1.96305,4.12772 0,1.29314 0.39499,2.5953 0.87777,2.89366 1.38856,0.85819 10.3526,-10.82391 11.48822,-14.97168 0.56487,-2.06315 1.64254,-3.987355 2.39481,-4.276027 2.30901,-0.886062 4.09789,0.938517 3.42876,3.497227 -0.34029,1.30124 -0.13601,2.94752 0.45396,3.65839 1.55096,1.86877 2.41611,21.95617 0.94565,21.95617 -0.82511,0 -0.84199,0.57228 -0.0599,2.03346 0.8663,1.61869 0.65623,2.46549 -1.02984,4.15158 -1.16497,1.16496 -2.56407,1.84249 -3.10913,1.50563 -0.54505,-0.33685 -0.99099,0.30933 -0.99099,1.43597 0,1.12663 -0.83016,2.3119 -1.8448,2.63392 -3.4107,1.08253 -10.34216,9.27741 -12.48591,14.76179 -2.128,5.44406 -2.8283,11.53274 -1.32648,11.53274 0.43949,0 3.13392,-1.75439 5.98763,-3.89862 2.85371,-2.14423 7.9324,-5.24335 11.286,-6.88692 6.68576,-3.27666 11.75425,-7.35713 11.75425,-9.46295 0,-1.80827 -0.99317,-1.70113 -3.26168,0.35183 -3.12753,2.83038 -2.10646,-0.0727 1.10912,-3.15342 1.64452,-1.57554 3.27667,-4.39262 3.62702,-6.26017 0.35036,-1.86756 1.31902,-3.96157 2.15258,-4.65336 1.95211,-1.62013 1.93929,-3.06296 -0.0273,-3.06296 -0.84852,0 -1.54276,-0.51538 -1.54276,-1.14525 0,-0.68747 -1.23341,-0.96424 -3.08556,-0.69239 -1.69704,0.24907 -3.08554,0.14614 -3.08554,-0.22874 0,-1.25666 7.32942,-10.10556 8.85529,-10.69108 2.18111,-0.83697 2.91866,1.90994 2.87307,10.70042 -0.025,4.82327 -0.67575,9.1761 -1.73653,11.61599 -1.51725,3.48982 -1.52898,3.96637 -0.11107,4.5105 1.00546,0.38583 3.1708,-0.94756 5.9193,-3.64499 2.38362,-2.33936 4.66346,-4.25337 5.06631,-4.25337 1.3055,0 0.74566,8.61856 -0.85918,13.22663 -0.85893,2.46634 -2.75459,6.04821 -4.21257,7.95973 -2.26337,2.96744 -2.41258,3.56693 -1.02073,4.10103 0.89658,0.34405 3.20073,-0.34514 5.12033,-1.5315 4.14082,-2.55917 6.84719,-2.77546 6.84719,-0.5472 0,2.12372 -10.43146,12.50486 -13.88478,13.81781 -4.34397,1.65157 -12.97921,1.19132 -19.29482,-1.02845 -7.4402,-2.61502 -9.28667,-2.58228 -14.50635,0.25713 -5.48213,2.9822 -5.76237,3.43157 -5.78113,9.27061 -0.008,2.69467 -0.48368,5.70307 -1.05561,6.68535 -2.27193,3.90202 -7.09348,19.26265 -6.2965,20.05962 0.46681,0.46682 2.11092,-0.80603 3.65356,-2.82855 6.28403,-8.23876 12.346,-11.85322 19.84096,-11.83016 6.17371,0.0189 9.41217,1.62889 11.92225,5.92676 3.89726,6.67299 -0.98428,16.28997 -9.79155,19.29004 -4.12707,1.40585 -5.27918,1.44866 -7.7045,0.28624 -3.692,-1.76952 -5.92487,-6.23748 -4.47297,-8.95036 1.46654,-2.74028 7.71548,-6.43776 9.63514,-5.70111 2.95184,1.13272 2.71803,3.42076 -0.62274,6.09382 -3.19347,2.55523 -3.23383,2.68421 -1.29937,4.15199 4.83413,3.66787 10.85997,0.17114 10.85997,-6.30191 0,-2.83951 -0.8152,-4.51785 -3.49697,-7.19961 -3.15398,-3.15397 -4.06848,-3.49696 -9.32425,-3.49696 -3.20502,0 -6.67561,0.45401 -7.71242,1.00889 -1.03684,0.55489 -3.97128,3.91043 -6.521,7.45675 -8.30168,11.54651 -16.39381,17.82474 -26.91809,20.88423 -8.69277,2.52707 -22.11888,1.29664 -30.67428,-2.8111 -9.53925,-4.58014 -20.42128,-13.32663 -24.81666,-19.94656 -7.92232,-11.93188 -13.73835,-29.98581 -14.25358,-44.24551 -0.16347,-4.52407 -0.599,-6.05863 -1.71952,-6.05863 -0.83808,0 -1.78591,1.36231 -2.1468,3.08556 -0.8952,4.27459 -7.01253,18.073 -9.11957,20.57031 -0.954561,1.13137 -3.04943,4.02608 -4.655306,6.43271 -1.605856,2.40664 -4.426087,5.30664 -6.267165,6.44449 -8.701804,5.37802 -22.227584,6.7282 -28.963201,2.89122 -9.339102,-5.3201 -12.658108,-10.80303 -12.658108,-20.91098 0,-8.08329 2.114789,-12.8679 8.062649,-18.24145 5.522458,-4.98921 6.829139,-5.57314 14.404961,-6.43737 8.309955,-0.94798 13.473141,1.08766 15.953952,6.28997 2.678352,5.61655 2.165781,8.78941 -2.180374,13.49716 -6.170972,6.68436 -14.642356,7.10457 -14.642356,0.72631 0,-2.66657 4.388662,-6.63405 7.338317,-6.63405 1.055078,0 1.918332,0.66692 1.918332,1.48208 0,1.89879 -1.71728,2.98529 -2.560918,1.62024 -1.126904,-1.82335 -3.610175,-1.12742 -3.610175,1.01174 0,1.34155 0.685669,2.05703 1.971317,2.05703 1.084233,0 2.135224,0.49171 2.335553,1.09269 0.254624,0.76387 1.208908,0.77154 3.171253,0.0255 2.39304,-0.90984 2.807022,-1.65728 2.807022,-5.06805 0,-10.28535 -12.504338,-15.29095 -24.229891,-9.69943 -5.760368,2.74693 -8.12411,11.81128 -5.522882,21.17888 1.144127,4.12025 7.488739,12.01225 9.656993,12.01225 0.695027,0 2.049306,0.86811 3.009515,1.92913 1.136071,1.25534 3.8476,2.16692 7.763529,2.60994 10.852172,1.22779 18.564165,-4.07878 25.677167,-17.66826 1.401058,-2.67675 5.106896,-13.7149 8.368356,-24.9259 4.48867,-15.42936 12.09065,-31.76156 18.90994,-40.62637 5.92013,-7.69595 19.59879,-20.634782 26.82062,-25.370014 7.49073,-4.911547 20.99768,-11.237276 28.04778,-13.135672 10.56571,-2.845051 36.06484,-3.193246 44.97684,-0.614163 3.39411,0.982235 9.20828,2.669963 12.9204,3.750508 3.71209,1.080541 9.2661,3.550663 12.34218,5.489156 3.07609,1.938493 7.18741,4.261808 9.13625,5.162925 4.56853,2.112411 20.67123,18.50912 23.00301,23.423 0.98607,2.07798 2.21052,4.0363 2.72101,4.35179 0.51049,0.3155 2.63926,4.15353 4.73062,8.52895 3.82906,8.01092 6.36655,16.0015 7.34388,23.12593 0.29099,2.12132 0.77158,3.85694 1.06798,3.85694 0.29641,0 2.90907,-2.46228 5.80593,-5.47173 6.92063,-7.18962 17.50118,-12.55213 22.99971,-11.65693 14.06087,2.28922 19.89603,5.72269 25.05757,14.7441 2.72781,4.76772 3.36154,7.01177 3.42054,12.11244 0.0628,5.42185 -0.39196,6.98428 -3.39402,11.66284 -6.45153,10.05438 -13.71978,14.58852 -23.40649,14.60158 -17.49063,0.0237 -22.43398,-17.53827 -7.93117,-28.1764 5.13842,-3.76914 8.29075,-4.47782 11.73012,-2.63713 2.47519,1.32466 2.68019,6.7524 0.35219,9.32482 -1.54632,1.70865 -1.80921,1.61322 -4.73486,-1.71892 -1.85925,-2.11757 -4.05318,-3.52804 -5.48775,-3.52804 -3.68805,0 -6.65345,4.55593 -6.65345,10.22212 0,6.86455 4.34433,10.97657 13.25496,12.54614 5.61232,0.98859 6.97103,0.89149 10.63321,-0.75992 2.30928,-1.04133 5.51587,-3.71165 7.12577,-5.93406 5.94671,-8.2092 2.69302,-23.28572 -6.65546,-30.83929 -5.4926,-4.438 -7.57659,-5.49311 -13.44904,-6.80916 -7.00577,-1.57003 -12.38528,-0.33804 -18.03941,4.13127 -5.84376,4.61924 -9.20016,11.14693 -10.55526,20.52846 -2.60951,18.06575 -3.1913,21.56929 -4.61138,27.76992 -0.8421,3.67695 -2.18667,7.71044 -2.98794,8.96334 -0.80128,1.25288 -1.45687,3.03279 -1.45687,3.95537 0,0.92257 -0.64118,2.90588 -1.42485,4.40738 -2.51197,4.81287 -5.61895,11.90991 -6.3722,14.55553 -1.98489,6.97162 -14.50011,31.90719 -20.29699,40.44019 -2.73917,4.03204 -3.72519,6.32156 -3.02431,7.02244 2.42489,2.4249 18.77617,4.11923 18.77617,1.9456 0,-1.02536 7.06847,-6.20819 8.46687,-6.20819 0.43437,0 0.78976,0.69426 0.78976,1.54278 0,1.65947 2.60138,2.12977 3.52392,0.63707 0.30787,-0.49814 1.72368,-1.12821 3.14624,-1.40016 2.17233,-0.41527 2.58649,-0.10556 2.58649,1.93425 0,2.95913 0.48424,3.00608 3.83342,0.37162 3.98026,-3.13089 6.72517,-2.61743 4.5286,0.84708 -1.29757,2.04657 -9.29068,3.60172 -11.0419,2.14834 -0.78229,-0.64925 -2.59315,-0.95664 -4.02411,-0.6831 -1.43096,0.27355 -2.84943,0.0966 -3.15216,-0.39322 -0.72206,-1.16832 -3.63141,-1.11034 -5.56299,0.11085 -2.66896,1.68737 0.091,2.9123 9.24804,4.10454 4.80832,0.62604 11.13378,1.86731 14.05662,2.75837 l 5.31423,1.62011 7.42328,-3.71372 c 8.10478,-4.05465 10.23245,-4.511 10.23245,-2.19465 0,2.2401 -4.07968,4.39001 -8.53587,4.49827 -8.36027,0.20313 -7.86073,2.75815 1.59721,8.1696 4.1033,2.34772 8.22382,5.09155 9.15671,6.09738 0.93289,1.00583 3.24533,2.93685 5.13875,4.29115 3.70835,2.65246 10.71435,11.03972 11.81568,14.14522 0.37171,1.04814 1.5162,2.84381 2.54332,3.9904 2.77417,3.09683 7.77383,15.89367 8.62365,22.07257 0.57553,4.18468 1.20864,5.52913 2.79959,5.94517 1.82823,0.47811 1.98121,1.1004 1.38159,5.62052 -1.23123,9.28146 -5.01672,12.12293 -6.26976,4.70622 -0.4006,-2.37117 -1.36696,-4.9498 -2.14744,-5.7303 -0.78048,-0.78047 -1.41905,-2.48639 -1.41905,-3.79093 0,-1.30454 -0.69426,-2.94808 -1.54277,-3.65228 -1.69931,-1.41029 -2.12661,-6.17109 -0.5539,-6.17109 0.54388,0 1.48211,1.83179 2.08497,4.07063 0.60286,2.23885 1.54636,4.34891 2.09669,4.68903 0.5503,0.3401 1.00056,1.51673 1.00056,2.61471 0,1.09798 0.65403,1.99633 1.45343,1.99633 1.12229,0 1.24441,-0.64443 0.53603,-2.82842 -0.50456,-1.55562 -1.86778,-5.76607 -3.02936,-9.35654 -1.16158,-3.59047 -3.97111,-9.32714 -6.24344,-12.74817 -2.2723,-3.42103 -4.76569,-7.42585 -5.54084,-8.89962 -2.05397,-3.90514 -10.35445,-12.42873 -18.0313,-18.51595 -3.67694,-2.91558 -7.24435,-5.75199 -7.92759,-6.30313 -0.68322,-0.55115 -1.76886,-1.00209 -2.41251,-1.00209 -0.64365,0 -2.39882,-0.86631 -3.90036,-1.92513 -5.89465,-4.15667 -13.35412,-7.15127 -20.61227,-8.27478 -4.17839,-0.64677 -7.84315,-0.92985 -8.14398,-0.62906 -0.30079,0.3008 0.0877,1.819 0.86322,3.37379 0.77556,1.55478 1.61208,3.23404 1.85891,3.73168 0.24683,0.49766 -0.13556,0.71003 -0.84976,0.47196 -0.71421,-0.23806 -2.32334,-2.26514 -3.57582,-4.50463 l -2.27727,-4.07177 -11.43432,-0.29037 c -14.11709,-0.35851 -22.02671,1.33123 -32.85676,7.01922 -25.18124,13.22528 -35.96679,25.77171 -48.5917,56.52488 -4.3606,10.62208 -5.29901,15.92782 -6.36688,35.99807 l -1.06714,20.05605 -2.99353,2.82841 c -3.63369,3.43324 -5.60243,3.5908 -6.4269,0.51427 z M 223.2402,209.07032 c -0.2357,-0.7071 -1.04565,-1.28564 -1.79991,-1.28564 -0.75424,0 -1.56419,0.57854 -1.79989,1.28564 -0.25492,0.7648 0.47425,1.28566 1.79989,1.28566 1.32565,0 2.05485,-0.52086 1.79991,-1.28566 z m -17.16466,-26.56875 c 0.72251,-4.34408 2.50389,-7.8315 5.81616,-11.38636 2.49741,-2.68027 2.50493,-2.74028 0.42744,-3.39965 -1.16315,-0.36917 -3.02754,-0.18273 -4.14308,0.41427 -2.71238,1.45162 -2.86767,1.4084 -3.49002,-0.97153 -0.7158,-2.73723 -4.50396,-2.69344 -5.37856,0.0622 -0.5485,1.72818 -1.22549,1.99776 -3.66911,1.46105 -4.03702,-0.88668 -3.86349,0.73672 0.6413,5.99957 2.00081,2.33748 3.91596,5.41948 4.2559,6.84886 1.43971,6.05384 4.60243,6.60854 5.53997,0.97163 z m 41.10118,-12.83386 c 0.55063,-1.44826 1.35494,-2.41454 1.78735,-2.14728 0.43242,0.26725 1.85311,-0.085 3.15707,-0.78292 2.09114,-1.11915 2.18419,-1.42377 0.7886,-2.582 -1.06829,-0.8866 -6.18584,-1.41581 -15.75445,-1.62916 -15.04104,-0.33539 -20.85757,0.82721 -20.85757,4.169 0,1.41303 0.99556,1.65504 5.91396,1.43765 11.47497,-0.50717 21.99437,0.0263 21.34171,1.08234 -0.75613,1.22346 0.22691,3.08554 1.62893,3.08554 0.54629,0 1.44378,-1.18492 1.9944,-2.63317 z M 173.98738,167.056 c 7.61206,-0.92108 11.47618,-0.98092 13.52025,-0.20937 1.6046,0.60567 3.47417,0.70185 4.25526,0.21892 2.37985,-1.47138 -1.01789,-3.7651 -8.35873,-5.64271 -5.40878,-1.38345 -7.29945,-1.47622 -10.02204,-0.49172 -1.84558,0.66739 -3.75333,0.96761 -4.23941,0.66721 -0.4861,-0.30042 -2.2244,-0.11118 -3.86293,0.42055 -1.63853,0.53174 -4.25194,1.2202 -5.80756,1.52993 -1.55564,0.30973 -2.82842,1.15599 -2.82842,1.88061 0,2.12422 2.24844,3.76708 4.55129,3.32549 1.17373,-0.22509 6.93027,-0.98959 12.79229,-1.69891 z m -20.42913,0.13848 c 0,-1.08173 -3.31639,-3.12174 -5.07495,-3.12174 -1.53043,0 -1.37579,2.80129 0.18951,3.43292 2.2154,0.89393 4.88544,0.72386 4.88544,-0.31118 z m 46.90172,-15.26991 c -0.34673,-3.92239 -0.1395,-5.34955 0.73493,-5.06116 1.06285,0.35053 2.18221,5.57522 3.02295,14.10982 0.30881,3.13477 3.85174,4.28219 3.85174,1.24744 0,-1.10157 1.18913,-4.13049 2.64252,-6.73088 2.78366,-4.9805 4.39289,-14.62748 2.97454,-17.8318 -0.4551,-1.02818 -0.95657,-2.79509 -1.1144,-3.92644 -0.15781,-1.13138 -0.54581,-3.21413 -0.86222,-4.62833 -0.31641,-1.41422 -0.85681,-4.09025 -1.2009,-5.94672 -0.59599,-3.21572 -2.44377,-5.89433 -8.92978,-12.94496 -2.37259,-2.57912 -3.0608,-2.87276 -3.84119,-1.63896 -0.7141,1.12896 -0.95466,0.78399 -0.96649,-1.38603 -0.009,-1.66106 -0.45293,-2.61892 -1.04426,-2.25344 -0.56569,0.34959 -1.02852,1.76541 -1.02852,3.14623 0,1.38082 -0.46283,2.51059 -1.02852,2.51059 -0.56568,0 -1.02852,1.15708 -1.02852,2.57129 0,1.41421 -0.40885,2.5713 -0.90855,2.5713 -1.50072,0 -2.14949,4.30065 -0.97877,6.48819 0.85862,1.60435 0.72889,2.24511 -0.60581,2.99205 -3.51611,1.96772 -0.73569,25.90994 3.66297,31.54195 1.05365,1.34907 1.91572,3.47039 1.91572,4.71405 0,3.98168 1.48896,3.92085 3.37912,-0.13803 1.3134,-2.82039 1.69882,-5.49898 1.35344,-9.40616 z m -6.01751,-33.64533 c -0.27292,-1.4277 -0.0955,-2.84351 0.39437,-3.14624 0.48982,-0.30272 0.89058,0.8654 0.89058,2.59584 0,3.81829 -0.61029,4.07969 -1.28495,0.5504 z m 49.20997,40.60581 c 4.61433,-2.10207 6.45107,-4.70641 7.22188,-10.24004 0.58816,-4.22247 -0.22928,-5.41373 -2.66926,-3.88994 -1.14421,0.71458 -2.08036,1.88213 -2.08036,2.59457 0,0.71245 -0.86719,1.29537 -1.92705,1.29537 -1.05989,0 -3.95239,1.85134 -6.42778,4.11407 -2.4754,2.26274 -5.02279,4.11406 -5.66089,4.11406 -0.63807,0 -1.71411,0.66748 -2.39118,1.4833 -1.03803,1.25073 -0.45308,1.54417 3.731,1.87164 2.72911,0.21359 5.10311,0.47177 5.27557,0.57373 0.17247,0.10203 2.39009,-0.76057 4.92807,-1.91676 z m 3.50078,1.07365 c 0,-0.5657 -0.69426,-1.02853 -1.54278,-1.02853 -0.84853,0 -1.54279,0.46283 -1.54279,1.02853 0,0.56567 0.69426,1.02851 1.54279,1.02851 0.84852,0 1.54278,-0.46284 1.54278,-1.02851 z m -84.81251,-3.15037 c 1.31279,-2.12417 -2.72953,-5.1039 -6.52852,-4.81236 -4.19336,0.32178 -6.81411,3.29499 -4.31095,4.8907 2.09472,1.33535 10.00108,1.27822 10.83947,-0.0784 z m 23.4626,-18.75347 c -0.34427,-3.50919 -1.02917,-6.82005 -1.52201,-7.35746 -0.49284,-0.53738 -0.89607,-2.19873 -0.89607,-3.69184 0,-1.90341 -0.77465,-3.0677 -2.59195,-3.8957 -1.42557,-0.64955 -3.03402,-2.34374 -3.57434,-3.76491 -0.54034,-1.42115 -1.45671,-2.58392 -2.03638,-2.58392 -0.57968,0 -1.36576,-0.001 -1.74683,-0.003 -0.38108,-0.002 -0.757,3.57891 -0.83539,7.95703 l -0.14253,7.96023 4.94945,4.74548 c 2.72219,2.61002 4.94944,5.23903 4.94944,5.84223 0,1.21924 2.15446,2.25417 3.32191,1.59575 0.41283,-0.23282 0.46894,-3.29447 0.1247,-6.80369 z m 38.38384,-0.34891 c 3.44259,-3.64055 5.48128,-6.70091 5.48128,-8.22812 0,-2.48059 -1.42484,-3.25812 -2.57129,-1.40313 -0.34959,0.56569 -1.09849,1.02852 -1.66416,1.02852 -0.56569,0 -0.76829,-0.42107 -0.45023,-0.9357 0.31806,-0.51464 0.29133,-1.68354 -0.0594,-2.59754 -0.52663,-1.37234 -0.91663,-1.43331 -2.23875,-0.34995 -1.39384,1.14215 -1.50818,0.97917 -0.88363,-1.25939 0.39456,-1.41422 1.00057,-3.86946 1.34672,-5.4561 0.38868,-1.78165 1.13698,-2.68998 1.9569,-2.37535 2.04061,0.78304 6.6832,-1.74808 6.36545,-3.47043 -0.4021,-2.17941 -3.85864,-2.64502 -3.85864,-0.51975 0,1.32494 -0.63245,1.56099 -2.86717,1.07017 -2.40423,-0.52805 -3.27317,-0.0845 -5.38175,2.74669 -2.30185,3.09079 -2.51835,4.33362 -2.559,14.69012 -0.0444,11.34456 0.10521,12.85645 1.27327,12.85645 0.34603,0 3.09569,-2.60843 6.1104,-5.79649 z m -54.17264,-4.42797 c 0,-0.53229 -0.46282,-1.25387 -1.0285,-1.60349 -0.56569,-0.34961 -1.02852,0.0858 -1.02852,0.96782 0,0.88192 0.46283,1.60348 1.02852,1.60348 0.56568,0 1.0285,-0.43551 1.0285,-0.96781 z m 75.59593,-9.31734 c 0.3496,-0.56569 -0.11323,-1.02852 -1.02852,-1.02852 -0.9153,0 -1.37812,0.46283 -1.02852,1.02852 0.34962,0.56567 0.81245,1.02851 1.02852,1.02851 0.21606,0 0.6789,-0.46284 1.02852,-1.02851 z m -58.11115,-2.05704 c 0,-0.56569 -0.46284,-1.02852 -1.02852,-1.02852 -0.56568,0 -1.02852,0.46283 -1.02852,1.02852 0,0.56569 0.46284,1.02852 1.02852,1.02852 0.56568,0 1.02852,-0.46283 1.02852,-1.02852 z m -10.52086,-9.44948 c -0.6357,-1.90711 -2.84984,-2.2234 -2.84984,-0.40712 0,0.89565 0.73281,1.62847 1.62848,1.62847 0.89566,0 1.44527,-0.5496 1.22136,-1.22135 z m 49.60445,-2.8927 c 0,-0.56569 -0.46283,-1.02852 -1.0285,-1.02852 -0.56569,0 -1.02851,0.46283 -1.02851,1.02852 0,0.56568 0.46282,1.02851 1.02851,1.02851 0.56567,0 1.0285,-0.46283 1.0285,-1.02851 z m 132.67855,224.14884 c 0,-1.73426 -0.50571,-4.09808 -1.12379,-5.253 -0.78161,-1.46045 -0.79647,-2.42718 -0.0488,-3.17485 0.74767,-0.7477 0.45062,-1.86882 -0.97558,-3.68194 -1.89226,-2.4056 -1.91683,-2.68176 -0.31814,-3.57644 1.50536,-0.84244 1.20757,-1.432 -2.27181,-4.49754 l -4.00429,-3.52802 4.07854,0.66421 c 7.98092,1.29971 12.80879,5.6339 7.7494,6.95695 -2.79636,0.73126 -2.58589,2.21638 0.51427,3.62892 1.4142,0.64435 2.57129,1.9125 2.57129,2.81809 0,1.29442 -0.65989,1.50162 -3.08556,0.96885 -3.75971,-0.82576 -3.93309,0.38798 -0.51425,3.59981 2.87848,2.70419 3.36615,5.14258 1.02852,5.14258 -0.84853,0 -1.54278,0.69425 -1.54278,1.54278 0,0.84852 -0.46283,1.54277 -1.02852,1.54277 -0.56567,0 -1.02851,-1.41893 -1.02851,-3.15317 z m -16.36315,-4.99566 c -1.74393,-1.10398 -2.62471,-7.89273 -1.14286,-8.80856 0.57737,-0.35683 1.04976,0.0161 1.04976,0.82876 0,0.81264 0.69424,2.05371 1.54276,2.75792 1.56847,1.3017 2.18033,6.18411 0.7714,6.15534 -0.42428,-0.008 -1.42374,-0.42872 -2.22106,-0.93346 z M 80.415199,328.0782 c -0.327154,-2.72264 0.512007,-5.28218 2.275223,-6.93971 1.076496,-1.01199 1.957266,-2.28476 1.957266,-2.82842 0,-0.54365 0.663074,-0.98844 1.47348,-0.98844 0.810396,0 1.774987,-0.95003 2.143519,-2.11119 0.546501,-1.72187 0.94821,-1.88036 2.178405,-0.85937 1.235462,1.02533 1.613646,0.84905 2.090482,-0.97436 0.656857,-2.51179 1.446715,-2.76735 3.183876,-1.03019 0.908976,0.90899 1.458891,0.50453 2.291508,-1.6854 1.407682,-3.70251 2.475492,-2.68575 1.559462,1.48492 -0.561516,2.55656 -1.097962,3.0742 -2.669167,2.57553 -1.116822,-0.35447 -1.966401,-0.13881 -1.966401,0.49917 0,0.6178 -1.157087,1.5632 -2.571281,2.10089 -1.414215,0.53767 -2.571294,1.6833 -2.571294,2.54582 0,0.86254 -0.463846,1.56824 -1.030773,1.56824 -0.566917,0 -2.649663,1.71634 -4.628321,3.81408 -1.978655,2.09774 -3.650852,3.37054 -3.715984,2.82843 z m 62.857901,-5.20457 c 0,-2.08217 5.54554,-7.60904 7.63476,-7.60904 1.10108,0 1.62188,0.95036 1.62188,2.9596 0,3.473 -1.34153,4.7461 -5.91396,5.61234 -2.60735,0.49397 -3.34268,0.28213 -3.34268,-0.9629 z m 193.36098,-1.29312 c 0,-3.66995 -0.90788,-6.31592 -2.16708,-6.31592 -0.50515,0 -0.91849,0.92566 -0.91849,2.05704 0,1.13136 -0.46281,2.05702 -1.0285,2.05702 -0.56567,0 -1.02852,-1.65034 -1.02852,-3.66742 0,-2.01709 -0.49846,-4.59883 -1.10772,-5.73721 -0.60922,-1.13837 -0.8076,-2.84357 -0.44079,-3.78931 0.60318,-1.55523 0.80732,-1.52876 2.13622,0.27694 0.80813,1.09807 1.46931,3.29653 1.46931,4.88545 0,2.86398 1.34821,3.83946 2.5713,1.86046 0.34961,-0.56568 1.07119,-1.02852 1.60346,-1.02852 1.30068,0 1.24413,11.02152 -0.0607,11.82794 -0.59771,0.36939 -1.02851,-0.64696 -1.02851,-2.42647 z m -201.58911,-2.5567 c 0,-1.46119 2.08786,-3.42841 5.90002,-5.55913 3.06045,-1.71056 3.35663,-1.64117 3.35663,0.7865 0,1.23408 -1.35195,2.89646 -3.34269,4.11024 -3.90108,2.37851 -5.91396,2.60398 -5.91396,0.66239 z m -8.22812,-3.75922 c 0,-2.36399 -0.38203,-2.4754 -3.24125,-0.94518 -3.27741,1.75402 -3.45768,0.28859 -0.44964,-3.65514 3.26815,-4.28478 5.74791,-4.74056 5.74791,-1.05651 0,2.90846 1.19481,3.30673 3.08556,1.0285 1.82646,-2.20074 4.11405,-1.90639 4.11405,0.52939 0,1.23407 -1.35194,2.89644 -3.34267,4.11021 -4.24451,2.58794 -5.91396,2.58476 -5.91396,-0.0113 z m 199.20469,1.38681 c -0.38563,-0.38563 -0.70372,-1.43395 -0.70687,-2.32961 -0.003,-0.89568 -0.48774,-3.36411 -1.07687,-5.48543 -1.12962,-4.06757 -4.05997,-5.36669 -4.05997,-1.79989 0,3.68181 -1.80858,2.17347 -3.69971,-3.08556 -1.98065,-5.50807 -3.85348,-6.56867 -4.99447,-2.82841 -0.66293,2.17318 -0.80367,2.09485 -2.31026,-1.28565 -0.88235,-1.97989 -1.82914,-5.50653 -2.10394,-7.83696 -0.62716,-5.31848 1.37836,-7.03503 2.95044,-2.52534 1.016,2.91453 3.98685,4.50483 3.98685,2.13418 0,-2.60951 2.05688,-0.58337 3.65445,3.59979 1.79379,4.69696 3.19683,5.59377 5.36276,3.42783 1.30133,-1.30132 1.27124,-1.35194 3.16024,5.31456 1.70059,6.00159 2.23302,10.72802 1.36311,12.10052 -0.45354,0.71562 -1.14014,0.9856 -1.52576,0.59997 z m -223.88907,-2.20114 c 0,-2.13738 3.40915,-8.36371 4.28355,-7.8233 1.65748,1.02439 0.83425,4.18827 -1.71227,6.5806 -1.41421,1.32857 -2.57128,1.8878 -2.57128,1.2427 z m 12.34218,-0.2344 c 0,-1.90196 3.33876,-7.05649 4.97825,-7.68561 1.98649,-0.76229 2.54879,-0.0455 1.74865,2.22862 -0.81706,2.32225 -6.7269,7.11644 -6.7269,5.45699 z m -6.17109,-0.27585 c 0,-1.64301 4.4326,-7.85658 5.24606,-7.35384 0.55453,0.34269 0.55231,1.28196 -0.005,2.32412 -1.04966,1.96132 -5.24063,5.98362 -5.24063,5.02972 z m -28.284191,-5.4508 c 1.131374,-0.86205 1.93841,-2.16019 1.793415,-2.88476 -0.144993,-0.72459 0.92638,-1.85965 2.38082,-2.52233 1.951601,-0.8892 2.479921,-1.7233 2.016471,-3.1835 -0.538426,-1.69642 0.03884,-2.07865 4.047394,-2.67976 3.52293,-0.52831 4.675383,-1.14982 4.675383,-2.52141 0,-2.08484 3.44809,-3.29506 6.911468,-2.4258 4.32307,1.08501 2.22287,4.47965 -2.771486,4.47965 -1.024581,0 -2.129277,0.69425 -2.454899,1.54278 -0.325592,0.84851 -1.51417,1.54277 -2.64126,1.54277 -1.127071,0 -2.877215,0.85157 -3.889212,1.89236 -1.011964,1.04081 -2.649918,2.18336 -3.639867,2.53902 -0.989939,0.35565 -1.799908,1.33913 -1.799908,2.18551 0,1.61986 -3.037634,3.69102 -5.332085,3.63555 -0.827473,-0.0199 -0.554029,-0.64168 0.703766,-1.60008 z m 268.442641,-4.09729 c -2.99654,-2.49641 -3.02796,-2.61401 -1.08907,-4.07707 2.5678,-1.93764 2.95237,-1.90951 7.81539,0.57142 4.35106,2.21974 4.78451,2.97033 2.83887,4.91598 -1.98661,1.98661 -6.24061,1.35939 -9.56519,-1.41033 z m -6.6686,-10.31903 c -4.3601,-1.97895 -5.29376,-2.77889 -4.11406,-3.52481 2.07209,-1.31018 8.2253,-1.24306 12.17194,0.13274 3.83441,1.33668 4.37364,4.498 0.92488,5.42222 -3.00109,0.80427 -2.47687,0.92274 -8.98276,-2.03015 z m -42.54492,-2.98228 c -1.87318,-4.55493 -3.75506,-6.09935 -3.75506,-3.08169 0,2.58835 -1.91012,1.72469 -3.65709,-1.65355 -1.63023,-3.15254 -1.33022,-8.11735 0.49052,-8.11735 0.49959,0 1.39235,1.38849 1.98394,3.08554 1.2551,3.6004 2.76281,3.99163 3.56475,0.92503 0.78399,-2.99798 2.14212,-1.81242 4.25171,3.71148 1.67385,4.38291 1.54958,9.76797 -0.2252,9.75886 -0.41347,-0.002 -1.60759,-2.08487 -2.65357,-4.62832 z m -191.96434,1.24851 c -1.40919,-0.71297 -2.71592,-2.09465 -2.90382,-3.07038 -0.26249,-1.36295 0.37678,-1.77408 2.75859,-1.77408 1.70515,0 3.38632,0.46284 3.73593,1.02851 0.98927,1.60069 3.5998,1.20929 3.5998,-0.53971 0,-0.86253 1.18722,-2.01961 2.63826,-2.57128 3.34213,-1.27069 2.79151,-1.41173 5.96278,1.52731 2.62368,2.43154 2.65227,2.57213 0.73207,3.5998 -2.59372,1.38811 -5.54369,1.36189 -6.96753,-0.062 -0.8228,-0.82281 -1.72041,-0.54231 -3.29125,1.02852 -2.51296,2.51297 -2.85491,2.55846 -6.26483,0.83323 z m 21.02636,-1.39484 c -3.21028,-3.46395 -3.19624,-5.29829 0.0466,-6.11223 3.41054,-0.856 4.89157,-0.17916 6.60224,3.01725 1.15702,2.16194 1.17849,2.9566 0.11452,4.23863 -1.89726,2.28604 -3.89868,1.94761 -6.76356,-1.14365 z m 204.40419,-5.22681 c -4.25227,-0.52385 -3.82705,-2.42751 0.91108,-4.07872 5.60819,-1.95443 10.20791,-1.7074 10.20791,0.54824 0,1.86119 -4.05424,4.43682 -6.47662,4.11455 -0.6805,-0.0906 -2.76955,-0.35335 -4.64237,-0.58407 z m -47.91064,-3.96377 c -0.95004,-2.47575 -0.74551,-5.57271 0.36802,-5.57271 1.45677,0 3.37076,4.03867 2.71897,5.73721 -0.74503,1.94153 -2.31084,1.85808 -3.08699,-0.1645 z m 40.00209,-5.08465 c 5.01086,-2.45413 11.82793,-3.42009 11.82793,-1.67597 0,2.32632 -4.00749,3.90189 -10.28516,4.04364 l -6.68536,0.15094 z m -22.1131,-6.9394 c 0,-1.07291 8.13949,-4.80959 10.54229,-4.83975 0.98994,-0.0124 1.7999,0.36851 1.7999,0.84651 0,1.92699 -3.84726,4.07306 -7.971,4.44638 -2.40415,0.21765 -4.37119,0.0137 -4.37119,-0.45314 z M 170.35113,207.89277 c -2.83969,-2.44258 -2.85318,-2.51302 -1.61426,-8.41971 1.38848,-6.61962 3.61358,-10.26519 2.71978,-4.45605 -0.43249,2.8109 -0.008,4.07267 2.12494,6.32753 4.9411,5.22167 11.01393,4.9033 11.67241,-0.61194 0.39364,-3.29696 -2.61292,-5.02831 -4.10425,-2.36346 -1.19699,2.1389 -2.90711,2.21109 -2.90711,0.12272 0,-2.84685 3.23957,-6.64917 5.66509,-6.64917 2.75065,0 3.59155,1.72939 3.59155,7.38658 0,3.32868 -0.68039,4.81318 -3.49695,7.62974 -4.36926,4.36927 -9.33618,4.74538 -13.6512,1.03376 z m 149.8267,-42.7308 c 0,-2.76807 1.22977,-3.1501 3.25695,-1.01178 1.91019,2.01491 1.4574,3.00811 -1.37136,3.00811 -1.18081,0 -1.88559,-0.74617 -1.88559,-1.99633 z m -84.85256,-35.03024 c -0.34962,-0.56569 -0.14551,-1.02851 0.45354,-1.02851 0.59908,0 1.08922,0.46282 1.08922,1.02851 0,0.56567 -0.20408,1.02852 -0.45355,1.02852 -0.24945,0 -0.73961,-0.46285 -1.08921,-1.02852 z m 1.54276,-19.74179 c 0,-0.9271 -0.57853,-1.92654 -1.28565,-2.22098 -0.91187,-0.37972 -0.70521,-1.00266 0.71085,-2.14274 2.52517,-2.03304 3.5635,-2.02801 4.34981,0.0211 0.36612,0.95413 -0.28606,2.53935 -1.57507,3.82837 -1.82915,1.82913 -2.19994,1.91583 -2.19994,0.51431 z m -21.065,-8.45633 c 0.40547,-5.177302 2.49988,-8.589026 4.51005,-7.346678 1.64025,1.013729 1.38042,3.198788 -0.57315,4.820114 -0.9352,0.776154 -2.2927,2.799864 -3.01664,4.497134 -1.27487,2.98886 -1.30382,2.92686 -0.92026,-1.97057 z m -51.95962,2.93186 c 0,-1.89489 2.42589,-4.56069 4.15025,-4.56069 1.4699,0 2.02084,0.70102 2.02084,2.57128 0,2.17131 -0.47997,2.57129 -3.08553,2.57129 -1.69706,0 -3.08556,-0.26185 -3.08556,-0.58188 z m 11.80009,-4.60575 c -0.82964,-1.34238 1.34103,-4.069011 3.23933,-4.069011 1.54035,0 1.76287,0.987051 0.79254,3.515688 -0.70809,1.845233 -3.03598,2.164713 -4.03187,0.553323 z m 9.13714,-2.539332 c -0.70144,-1.827924 1.32708,-4.615232 3.35883,-4.615232 1.68707,0 1.80984,1.457937 0.35213,4.181678 -1.2755,2.383314 -2.89036,2.571977 -3.71096,0.433554 z m 21.23193,-0.768014 c 0,-1.645879 3.87599,-4.11574 5.18719,-3.305385 1.59313,0.984615 -0.8956,4.600747 -3.16635,4.600747 -1.11147,0 -2.02084,-0.582913 -2.02084,-1.295362 z m -4.35716,-2.818695 c -1.19964,-4.072954 -0.93369,-6.243899 1.34036,-10.941466 2.31447,-4.781018 5.28876,-6.441865 7.80162,-4.35639 2.18929,1.816956 3.6237,5.909572 2.88592,8.234094 -0.84983,2.677583 -2.18601,2.395909 -2.94307,-0.62042 -0.35084,-1.397882 -1.58768,-3.049915 -2.74853,-3.671181 -3.39406,-1.816435 -4.93024,0.392619 -5.27501,7.585505 -0.22494,4.693067 -0.50079,5.67286 -1.06129,3.769858 z M 679.30126,425.49179 c 0.18856,-0.46887 6.12626,-9.34531 13.19487,-19.72541 8.31836,-12.21529 12.73752,-19.62448 12.52733,-21.00345 -0.71421,-4.68596 -15.74116,-83.50513 -16.24026,-85.18321 -0.47571,-1.59942 0.30617,-1.7999 7.01965,-1.7999 h 7.55501 l 6.59771,35.48379 c 3.62873,19.51609 6.85553,35.46908 7.17066,35.45107 0.31511,-0.0179 10.73335,-15.9857 23.15163,-35.4838 l 22.57868,-35.45106 h 7.53036 7.53035 l -3.88188,6.03521 c -2.13503,3.31936 -21.00667,32.23501 -41.93697,64.25698 l -38.05508,58.22179 -7.54245,0.0253 c -4.14836,0.0139 -7.38817,-0.35837 -7.19961,-0.82726 z m -78.33862,-31.97428 c -16.31353,-3.38294 -23.81795,-20.80016 -16.39576,-38.05346 6.14763,-14.29055 22.50158,-21.27734 55.25894,-23.60791 6.38413,-0.45419 12.06651,-1.28484 12.62753,-1.84586 0.561,-0.56099 1.08939,-3.65657 1.17417,-6.87906 0.18672,-7.09643 -1.82026,-10.36642 -8.49891,-13.84735 -4.12531,-2.15015 -5.61495,-2.34048 -15.36754,-1.96359 -8.02616,0.31018 -12.90103,1.10899 -18.98343,3.11071 -4.50119,1.48135 -8.3478,2.52957 -8.548,2.32937 -0.20022,-0.20022 0.22122,-3.19741 0.93649,-6.66045 1.24767,-6.0406 1.45691,-6.33856 5.14938,-7.33284 8.85915,-2.38553 16.37814,-3.36154 26.07388,-3.38457 22.23427,-0.0528 33.37599,7.58283 33.45674,22.92845 0.0179,3.40463 -2.98177,19.24489 -7.45674,39.37642 l -7.4867,33.68039 -7.02421,0.003 -7.02419,0.003 0.67275,-3.34268 c 0.37002,-1.83848 0.90081,-4.15264 1.17955,-5.14259 0.27873,-0.98994 0.26059,-1.79991 -0.0403,-1.79991 -0.30089,0 -4.06948,2.1385 -8.37463,4.75222 -4.30512,2.61371 -9.75982,5.32814 -12.12152,6.03206 -5.93585,1.76921 -14.902,2.53647 -19.20749,1.64364 z m 31.07595,-17.37849 c 4.68705,-2.36208 9.26212,-4.8758 10.16681,-5.58606 0.94803,-0.74429 2.96425,-6.738 4.75913,-14.14779 l 3.11424,-12.8564 -3.73063,-0.33774 c -4.96363,-0.44939 -21.74194,1.56721 -29.44351,3.53881 -13.28008,3.3997 -20.28568,10.33633 -20.40715,20.20628 -0.12848,10.43769 5.22289,14.42755 18.5706,13.8458 7.48388,-0.32619 9.4217,-0.85862 16.97051,-4.6629 z m 179.71898,17.27564 c -13.67107,-2.12183 -25.2472,-9.55684 -30.22705,-19.41399 -4.86428,-9.62839 -5.79275,-23.20627 -2.5226,-36.89024 3.59109,-15.02691 15.63453,-31.02459 27.90291,-37.06429 15.54401,-7.6523 35.50988,-6.24454 45.78673,3.22832 8.6199,7.94555 11.66875,18.88202 9.5078,34.10528 l -1.24068,8.74033 H 825.97239 790.9801 l 0.46566,8.48525 c 0.5554,10.12059 2.85268,15.28506 9.22567,20.74012 5.5477,4.74863 12.40211,6.77268 22.93546,6.77268 9.42552,0 17.74147,-1.86309 25.21114,-5.64827 2.80012,-1.41893 5.2869,-2.57985 5.52619,-2.57985 0.23931,0 -0.35061,3.12411 -1.3109,6.94247 -2.02073,8.03487 -2.67693,8.52858 -14.48353,10.89722 -10.67375,2.14137 -20.05157,2.73115 -26.79222,1.68497 z m 37.70184,-61.25249 c 0.89745,-3.57567 -0.23076,-11.12873 -2.31992,-15.53128 -0.94136,-1.98379 -3.57248,-4.83837 -5.84691,-6.34353 -3.79039,-2.50837 -4.99954,-2.73665 -14.49561,-2.73665 -9.56309,0 -10.78437,0.2349 -15.87188,3.0528 -7.96754,4.41308 -14.0542,12.22669 -17.05088,21.88873 l -0.71773,2.31415 h 27.81964 27.81963 z m 45.18124,61.15368 c -9.50377,-1.3845 -22.98311,-6.32853 -24.66252,-9.04588 -0.32739,-0.5297 0.17081,-4.44931 1.10708,-8.71023 l 1.70231,-7.74717 4.22283,3.6196 c 2.32257,1.99078 7.23125,5.07319 10.90821,6.8498 5.84644,2.82486 7.97594,3.27674 16.97051,3.60112 9.17321,0.33083 10.77901,0.1134 14.85325,-2.01117 5.45089,-2.84247 8.12425,-6.23079 8.95497,-11.34991 1.50866,-9.29683 -2.61117,-12.93311 -20.30966,-17.92581 -14.76632,-4.16554 -19.06702,-6.20753 -23.3516,-11.08738 -7.87396,-8.96796 -6.18848,-23.40138 3.91227,-33.50211 12.68934,-12.68935 37.29707,-14.46839 57.5079,-4.1576 4.05333,2.06786 4.29632,2.43184 3.6724,5.50076 -1.28046,6.29822 -2.63916,11.00027 -3.17867,11.00027 -0.29878,0 -2.03608,-1.13866 -3.86068,-2.53034 -6.77486,-5.16745 -15.04301,-8.11831 -24.08285,-8.59507 -10.287,-0.54254 -16.10943,1.30889 -20.75477,6.59965 -2.55017,2.90446 -3.13347,4.47687 -3.13347,8.44675 0,8.63662 3.40337,11.19906 22.11309,16.64932 13.66334,3.98021 17.7385,5.97418 21.9026,10.71684 3.71059,4.2261 4.82217,8.84879 4.01304,16.68853 -1.42591,13.81584 -13.76433,24.55402 -31.09014,27.05789 -8.10816,1.17176 -8.92856,1.16857 -17.4161,-0.0678 z m -437.1732,-4.20956 c 0.30752,-1.29791 6.58939,-28.50986 13.95969,-60.47099 7.3703,-31.96113 13.64349,-58.92112 13.94044,-59.91106 0.4467,-1.48919 1.77079,-1.7999 7.67021,-1.7999 3.92166,0 7.13029,0.38096 7.13029,0.84659 0,0.90221 -10.01788,44.70454 -10.92423,47.76533 -0.5066,1.71077 1.33174,1.79894 32.17118,1.54277 l 32.70848,-0.27166 5.69558,-24.6844 5.69561,-24.68437 7.52295,-0.30388 c 6.82593,-0.27573 7.4733,-0.13278 6.98689,1.54277 -0.29484,1.01566 -6.61107,28.22809 -14.03607,60.47206 -7.42499,32.24397 -13.73246,59.43537 -14.01659,60.42531 -0.42808,1.49144 -1.73865,1.7999 -7.64692,1.7999 -3.92167,0 -7.1303,-0.42312 -7.1303,-0.94027 0,-0.51715 3.00839,-13.87388 6.68534,-29.68162 3.67695,-15.80774 6.68536,-29.26958 6.68536,-29.9152 0,-0.8545 -8.77455,-1.17385 -32.2536,-1.17385 h -32.25359 l -2.71398,11.57079 c -1.4927,6.36396 -4.69446,20.13321 -7.11502,30.59836 l -4.40102,19.02754 -7.45992,0.30282 c -7.31853,0.29706 -7.44935,0.25807 -6.90078,-2.05704 z M 504.0972,177.37132 c -16.78174,-2.27469 -29.51012,-10.78655 -36.204,-24.21069 -4.36865,-8.76104 -5.21348,-13.43721 -5.08953,-28.17148 0.14145,-16.81478 2.21723,-25.843635 9.20423,-40.035118 3.85027,-7.820348 6.38672,-11.324263 13.12377,-18.129506 13.0509,-13.183019 25.38876,-18.314136 43.83486,-18.230214 11.67206,0.0531 21.17734,2.140615 31.18363,6.848422 11.70239,5.505798 11.30698,4.901868 9.28813,14.186492 l -1.71643,7.893802 -5.69283,-4.63734 C 550.28214,63.31674 539.1876,59.614159 524.56197,60.38181 c -12.02201,0.630994 -19.7619,4.433515 -28.69776,14.098896 -12.27222,13.274096 -17.58139,28.327644 -17.63222,49.994174 -0.0267,11.41462 0.30186,14.22125 2.24637,19.18445 3.61159,9.21825 8.38119,14.63814 16.32205,18.54742 6.62494,3.26145 7.43641,3.40878 18.77378,3.40878 10.48128,0 12.7705,-0.33885 19.82512,-2.93444 4.38656,-1.61393 10.7505,-4.72796 14.1421,-6.92005 3.39158,-2.19208 6.1471,-3.64858 6.12334,-3.23667 -0.0238,0.41194 -0.87675,4.20897 -1.89555,8.43787 l -1.85237,7.6889 -5.77019,2.31959 c -14.07699,5.6589 -29.83056,8.05683 -42.04944,6.40059 z m 93.4204,0.0675 c -11.96125,-2.11649 -21.36751,-9.63422 -25.34041,-20.25266 -7.586,-20.27543 0.87116,-52.01061 17.78855,-66.750939 9.87268,-8.602173 24.13159,-12.72216 37.07823,-10.713422 17.8697,2.77258 28.1234,14.65144 29.20224,33.830671 1.55817,27.70061 -13.54412,54.34479 -35.05487,61.84546 -6.60003,2.30139 -17.09054,3.20577 -23.67374,2.04089 z m 21.44405,-13.7322 c 7.00646,-3.27413 12.4194,-9.04164 16.58278,-17.66901 6.9888,-14.48228 8.53763,-33.72849 3.54433,-44.04325 C 635.52577,94.634153 630.39,91.654362 620.49138,91.204043 610.373,90.74373 604.03842,93.27444 597.31369,100.46374 c -8.59428,9.18798 -13.17219,22.6455 -13.26544,38.99596 -0.0513,8.97089 0.21703,10.37522 3.02942,15.86283 4.13207,8.06259 9.083,10.81151 19.44644,10.79723 5.47679,-0.007 8.57669,-0.609 12.43754,-2.41319 z m 294.61898,13.71977 c -13.67107,-2.12182 -25.24719,-9.55684 -30.22705,-19.414 -4.86426,-9.62839 -5.79274,-23.20626 -2.5226,-36.89022 3.5911,-15.02693 15.63453,-31.024589 27.9029,-37.064298 15.54404,-7.652298 35.50989,-6.244552 45.78674,3.228314 8.6199,7.945549 11.66876,18.882014 9.50781,34.105284 l -1.2407,8.74033 h -34.99228 -34.99228 l 0.46566,8.48525 c 0.55538,10.12058 2.85267,15.28506 9.22565,20.74011 5.54773,4.74864 12.40212,6.7727 22.93549,6.7727 9.42549,0 17.74146,-1.8631 25.21113,-5.64827 2.80012,-1.41892 5.28689,-2.57987 5.52619,-2.57987 0.23929,0 -0.3506,3.12414 -1.31091,6.94249 -2.02074,8.03487 -2.67692,8.52857 -14.48353,10.89723 -10.67375,2.14136 -20.05156,2.73113 -26.79222,1.68495 z m 37.70186,-61.25248 c 0.89742,-3.57567 -0.23079,-11.12873 -2.31992,-15.53128 -0.94138,-1.983799 -3.57249,-4.838388 -5.84694,-6.343538 -3.79039,-2.50836 -4.99953,-2.736637 -14.49561,-2.736637 -9.56306,0 -10.78436,0.234905 -15.87186,3.052784 -7.96755,4.413084 -14.05421,12.226701 -17.05088,21.888721 l -0.71775,2.31416 h 27.81965 27.81963 z m -284.29931,56.94838 c 0.24993,-1.30027 5.05222,-22.37921 10.67174,-46.84209 l 10.21731,-44.47799 7.05398,-0.0053 7.05399,-0.0053 -0.67549,2.69128 c -0.3715,1.480205 -0.9493,4.060441 -1.28397,5.733864 l -0.60851,3.042594 7.07194,-4.328509 c 20.02235,-12.255037 36.58394,-12.845455 46.40972,-1.65451 3.8905,4.431048 5.91466,12.350139 4.99377,19.537101 -0.69723,5.44158 -14.71344,67.61105 -15.39716,68.29476 -0.20784,0.20783 -3.34906,0.23979 -6.98048,0.071 l -6.60259,-0.30691 6.46344,-27.76993 c 7.26535,-31.21531 8.79716,-43.41479 6.10499,-48.620844 -2.58925,-5.007074 -6.78522,-6.682564 -15.6182,-6.236518 -6.50307,0.328391 -8.76183,1.026604 -17.28734,5.343767 -5.39378,2.731315 -10.33711,5.604945 -10.9852,6.385805 -0.64806,0.7809 -4.75545,17.05233 -9.1275,36.15875 l -7.9492,34.73897 -6.98985,0.30708 c -6.80643,0.29902 -6.9779,0.24504 -6.53539,-2.05703 z m 104.90861,0 c 0.24993,-1.30027 5.05221,-22.37921 10.67174,-46.84209 l 10.21731,-44.47799 7.05398,-0.0053 7.05396,-0.0053 -0.67545,2.69128 c -0.37151,1.480205 -0.94931,4.060441 -1.28398,5.733864 l -0.60853,3.042594 7.07195,-4.328509 c 20.02236,-12.255037 36.58395,-12.845455 46.40973,-1.65451 3.89052,4.431048 5.91467,12.350139 4.99378,19.537101 -0.69725,5.44158 -14.71346,67.61105 -15.39717,68.29476 -0.20783,0.20783 -3.34906,0.23979 -6.98048,0.071 l -6.60259,-0.30691 6.46345,-27.76993 c 7.26535,-31.21531 8.79715,-43.41479 6.10499,-48.620844 -2.58926,-5.007074 -6.78521,-6.682564 -15.6182,-6.236518 -6.50307,0.328391 -8.76184,1.026604 -17.28734,5.343767 -5.39377,2.731315 -10.33711,5.604945 -10.9852,6.385805 -0.64807,0.7809 -4.75545,17.05233 -9.12752,36.15875 l -7.94919,34.73897 -6.98983,0.30708 c -6.80644,0.29902 -6.97792,0.24504 -6.53541,-2.05703 z m 202.65007,0.46431 c 0.25733,-0.98996 5.05535,-22.04763 10.66224,-46.79485 l 10.19432,-44.994922 6.94248,-0.0026 c 3.8183,-0.0014 6.9371,0.344486 6.9303,0.768751 -0.01,0.424262 -0.6839,3.295442 -1.5048,6.380396 -0.821,3.084953 -1.3796,5.722117 -1.2414,5.860358 0.1383,0.138239 5.3281,-2.259052 11.5329,-5.327322 12.1432,-6.004676 20.8366,-8.097975 28.99,-6.980433 5.0941,0.698226 5.0595,0.538156 2.317,10.723025 l -1.0302,3.82561 -3.8291,-1.057257 c -2.1059,-0.581488 -7.5579,-0.86153 -12.1155,-0.62232 -6.6065,0.346748 -9.7315,1.111129 -15.4131,3.769868 -13.9666,6.535776 -12.4329,3.467556 -21.10614,42.219826 l -7.61674,34.03182 h -7.09008 c -6.24502,0 -7.03432,-0.21453 -6.62218,-1.7999 z"
       id="path1" /></g></svg>
